<?xml version="1.0" encoding="utf-8"?>
<!-- Generator: Adobe Illustrator 22.0.2, SVG Export Plug-In . SVG Version: 6.00 Build 0)  -->
<svg version="1.1" id="logo" xmlns="http://www.w3.org/2000/svg" xmlns:xlink="http://www.w3.org/1999/xlink" x="0px" y="0px"
	 viewBox="0 0 300 300" style="enable-background:new 0 0 300 300;" xml:space="preserve">
<style type="text/css">
	.st0{fill:#FFFFFF;}
	.st1{fill-rule:evenodd;clip-rule:evenodd;fill:#FFFFFF;}
	.st2{fill-rule:evenodd;clip-rule:evenodd;fill:#231815;}
	.st3{fill:#FFFFFF;stroke:#FFFFFF;stroke-miterlimit:10;}
</style>
<g>
	<path class="st0" d="M38.5,227.3c-0.2,0-0.3,0-0.3,0c-0.1,0-0.2,0.1-0.2,0.2l0.1,0.3c-0.1,0-0.2,0.1-0.4,0.1
		c-0.1,0.1-0.3,0.2-0.5,0.3c-0.1,0-0.2,0-0.4,0l-1.4,0.3c-0.2,0.1-0.5,0.7-0.7,1.7c-0.2,0.8-0.3,1.4-0.4,2c-0.1,0.6-0.1,1.4-0.1,2.3
		c0,1.4,0.1,2.4,0.4,2.8c0.2,0.3,0.4,0.6,0.7,1.2c0.1,0.3,0.3,0.6,0.6,1.1c0,0.1-0.2,0.2-0.4,0.3c-0.3,0.1-0.5,0.3-0.6,0.5
		c-0.1,0-0.4-0.1-0.6-0.2c-0.1-0.1-0.3-0.2-0.6-0.4c0-1,0-1.7-0.1-2.1c-0.2-0.9-0.3-1.7-0.3-2.3c0-1.5,0.2-3.7,0.5-6.4
		c-0.6,0.2-1.1,0.4-1.4,0.7c-0.2-0.3-0.4-0.4-0.6-0.4c-0.1,0-0.1,0-0.2,0c-0.2,0.5-0.4,1.2-0.5,2.1l0,0c0,0,0.1,0.1,0.1,0.2
		c-0.1,0.2-0.1,0.3-0.1,0.4c0,0,0,0.1,0,0.1l0.1,0.1c-0.3,0.1-0.5,0.3-0.5,0.5c-0.1,0.3-0.1,0.8-0.1,1.3c0,0.6,0,1.1,0,1.3
		c-0.1,0-0.2,0.1-0.3,0.1c0,0,0,0.1-0.1,0.1c0,0,0,0.1,0,0.2l0,0l0,0l-0.2,0l-0.2,0c-0.2-0.1-0.3-0.4-0.3-0.8c0-0.2,0.1-0.5,0.2-0.8
		c0.1-0.4,0.2-0.7,0.2-0.9c0-0.1,0-0.1,0-0.2c-0.6,0.1-1.2,0.4-1.8,1c-0.1,0-0.2,0-0.3,0c-0.1,0-0.2,0-0.3,0c-0.2,0-0.4,0-0.5-0.1
		c-0.4-0.5-1.2-1-2.2-1.4c0,0.2,0,0.4,0,0.6c0,1,0.1,2,0.4,2.9c0,0-0.1,0-0.2,0l-0.3,0.4c-0.3-0.2-0.3-0.4-0.2-0.8
		c-0.1-0.1-0.2-0.3-0.2-0.4c0,0,0-0.1,0-0.1c-0.1-0.1-0.1-0.2,0.1-0.3c0-0.2-0.1-0.6-0.1-1.2c0-0.6,0-0.9-0.1-1.1
		c-1.2,0.8-2.2,1.8-3.1,2.8c-0.3-0.1-0.5-0.3-0.6-0.8c0-0.2,0.1-0.3,0.2-0.4c1.2-0.8,2.2-1.6,3.1-2.4l0.1-0.5
		c-0.1,0-0.1-0.1-0.2-0.1c0,0-0.1,0.1-0.5,0.2l0.1-0.2c0.6-0.2,0.9-0.3,1-0.4c-0.3,0.1-0.7,0.2-1,0.2c-0.5,0.1-0.8,0.2-0.9,0.4
		l0.3,0l-0.6,0.2v-0.3c0-0.1-0.1-0.1-0.1-0.1h0l0,0c0,0-0.1-0.1-0.2-0.3c-0.1,0-0.1-0.1-0.2-0.2l0.1-0.4c0.1-0.1,0.5-0.3,1.3-0.5
		c0.7-0.3,1.2-0.4,1.5-0.4v-0.5c-0.2,0-0.5,0.1-1,0.2c-0.5,0.1-0.8,0.1-1,0.1c-0.3,0-0.5,0-0.5,0c-0.1-0.1-0.3-0.2-0.6-0.3
		c-0.2-0.1-0.5-0.3-0.9-0.6c-0.1-0.1-0.3-0.2-0.5-0.4c-0.2-0.3-0.4-0.4-0.4-0.5c0.1-0.1,0.1-0.3,0.2-0.5c0.4-0.4,0.9-0.7,1.5-0.8
		c0.6-0.1,1.2-0.2,1.8-0.2c0-1.2,0.1-2.2,0.3-2.8c0.1-0.1,0.3-0.2,0.6-0.2c0.1,0.1,0.2,0.2,0.3,0.4c-0.3,0.9-0.5,1.6-0.5,2.3l0,0.2
		c0.1,0,0.1,0,0.2,0c0.1,0,0.3,0,0.5-0.1c0.2-0.1,0.4-0.1,0.6-0.1c0.2-0.7,0.5-1.6,1-2.9c-0.1-0.1-0.2-0.2-0.3-0.2
		c-2.4,0-4.1,0.1-5,0.4l-0.7-0.1c-0.1-0.1-0.3-0.2-0.5-0.3l-0.2,0c0-0.1-0.1-0.3-0.2-0.5l-0.1-0.1c0-0.7,0.3-1.1,0.8-1.1
		c0.1,0,0.1,0,0.2,0c0,0,0.1,0,0.1,0c0.1,0,0.2,0,0.4,0.1c0.2,0.1,0.3,0.1,0.4,0.1c0.3,0,0.7,0,1.2,0c0.6,0,1,0,1.3,0
		c-0.1,0,0.2,0,1-0.1c0-0.2,0-0.5-0.1-0.9c0-0.4-0.1-0.7-0.1-0.9c0-0.4,0.1-0.9,0.3-1.4c0.2-0.6,0.4-1,0.7-1.2l0,0
		c0.1,0,0.1,0,0.2,0c0,0,0,0,0.1-0.1c0,0,0.1-0.1,0.2-0.1c0,0,0,0,0.1,0c0.1,0,0.1,0,0.1,0c0.2,0,0.4,0,0.5,0.1v-0.2
		c0.5,0.1,1,0.4,1.4,0.6c0.6,0.4,0.9,0.8,0.9,1.2c0,0.3-0.1,0.7-0.4,1.1c0,0.1-0.1,0.3-0.2,0.6c0,0.2-0.1,0.4-0.2,0.7
		c0.1,0,0.3,0,0.4,0c0.2,0,0.5,0,1-0.1c0.4-0.1,0.7-0.1,1-0.1c0.2,0,0.3,0,0.5,0l0.3,0.2h0.2c0.1,0.2,0.2,0.4,0.3,0.8l-0.1,0.2
		c0,0-0.1,0-0.1,0c-0.2,0-0.2,0.1-0.3,0.4c-0.4,0.1-1.1,0.2-1.9,0.3c-0.9,0.1-1.5,0.2-2,0.3l0.1,0.3c-0.5,0.4-0.9,1.2-1.1,2.3l0.1,0
		c0.1,0,0.3,0,0.6-0.1c0,0,0.1-0.1,0.2-0.1h0.1l-0.1,0l0,0h0.1l0.1,0h0l0,0c0.1,0,0.1,0,0.2,0.1l0.2-0.1l0.1,0
		c0.1,0,0.3-0.1,0.6-0.2h0v0.1l0,0l0.1,0c0-0.1,0.1-0.2,0.2-0.2v0l0.1,0v0c0,0,0,0.1,0.1,0.1c0,0,0.1,0,0.1,0l0,0l0-0.1l0,0l0,0h0.1
		c0,0,0.1,0,0.1,0c0.5,0.1,0.8,0.4,0.9,0.7c0,0,0,0,0,0c0,0,0,0,0,0.2c0,0.1,0,0.2,0,0.3l0.2,0.1l-0.1,0l0,0h0c0,0.1,0,0.1,0,0.2
		l0.2,0.2c-0.2,0.1-0.4,0.4-0.5,0.7l0.1,0.1c0,0.1,0,0.2,0.1,0.4c-0.1,0-0.8,0.1-2.4,0.3c-1,0.1-1.7,0.3-2.3,0.6
		c0,0.2,0,0.3-0.1,0.4l0.1,0.1c0.6-0.2,1.3-0.4,2.1-0.5l0.6,0.3c-0.1,0.1-0.2,0.2-0.3,0.5l0.2,0.2l-0.3,0.3v0.2
		c-0.5,0-1,0.1-1.5,0.3c0,0.1-0.1,0.3-0.2,0.5c0,0.1-0.1,0.2-0.2,0.3c0.1,0.2,0.4,0.4,0.8,0.6c0.5,0.3,0.8,0.5,0.9,0.6
		c0.3-0.3,0.7-0.7,1.3-1c0.6-0.4,1.1-0.5,1.5-0.5c0.1-0.3,0.2-1,0.4-1.9c0.1-0.8,0.3-1.4,0.5-1.9c-0.3-0.5-0.6-1.1-0.8-1.9
		c0.1-0.3,0.2-0.8,0.5-1.4c0.2-0.4,0.7-1,1.4-1.8c0.7-0.8,1.2-1.3,1.6-1.5c0.2-0.1,0.3-0.2,0.5-0.2c0.3,0.1,0.5,0.2,0.8,0.3
		c0.3,0.1,0.5,0.3,0.6,0.6c0,0.4,0.1,0.8,0.2,1c-0.2,0.3-0.7,0.9-1.4,1.6c-0.7,0.7-1.2,1.2-1.4,1.6c-0.1,0.2-0.3,0.4-0.4,0.7
		c0,0.2-0.1,0.5-0.2,0.8c0.1,0,0.5-0.2,1.3-0.5c1-0.4,1.9-0.7,2.7-1c0,0,0.2,0,0.3-0.1c0.2-0.1,0.3-0.1,0.4-0.1c0,0,0.2,0.1,0.5,0.2
		c0.2,0.1,0.4,0.2,0.6,0.2c0.2,0.1,0.4,0.2,0.5,0.5c0,0,0,0.2-0.1,0.3L38.5,227.3z M22.9,231.4L22.9,231.4L22.9,231.4L22.9,231.4
		l-0.1,0.2c0,0-0.1,0-0.1,0l0.1,0l0,0h-0.1l0,0l0,0.1v0.1l-0.1-0.1C22.5,231.5,22.7,231.4,22.9,231.4z M25.9,230.6
		c-0.2,0-0.5,0.1-0.7,0.1c-0.3,0-0.5,0.1-0.6,0.2l0.1,0l0.1,0l0.1-0.1c0.1,0,0.4,0,0.7-0.2C25.6,230.7,25.7,230.7,25.9,230.6z
		 M26.2,230.6L26.2,230.6c0-0.1,0-0.1-0.2,0l-0.1,0l-0.1,0l0,0.1L26.2,230.6L26.2,230.6z"/>
	<path class="st0" d="M60.3,225.6h-0.1l0,0.1c0,0.1,0,0.1,0,0.2c-0.1,0.1-0.1,0.1-0.2,0.1c-0.1,0-0.1,0-0.3,0
		c-0.2,0-0.3,0.1-0.4,0.2c-0.1,0-0.3,0.1-0.4,0.1c-0.2,0.1-0.3,0.1-0.3,0.3c0,0,0,0.1,0,0.1l-0.4,0.1l0.3-0.1l0-0.1l-0.1-0.1h0l0,0
		c0,0-0.1,0-0.2,0c-0.1,0.1-0.1,0.1-0.3,0.2H58l-1.1,0.2l0.2,0.1c-0.1,0-0.3,0-0.6,0.1l0,0c0,0-0.1,0.1-0.1,0.2l-0.1,0h-0.2
		c-0.1,0-0.1,0.1-0.2,0.1l0,0l0-0.1l-0.1,0l0.1,0.1c0.1,0,0.3,0,0.5-0.1c0-0.1-0.1-0.1-0.1-0.1c0,0-0.1,0-0.1,0l0,0l0,0
		c0,0,0,0,0.1,0h0c-0.1,0-0.2,0-0.4,0c0,0-0.1,0.1-0.1,0.1l-0.2,0c-0.2,0.1-0.3,0.4-0.3,0.8c0,0.1,0,0.2,0,0.3
		c0.2-0.1,0.8-0.2,1.7-0.3c0.1,0.1,0.4,0.1,0.6,0.2l0,0.3l-0.2,0.2l0.1,0.2c-0.4,0-1,0.1-1.8,0.4l0,0c0,0,0.1,0.1,0.1,0.1
		c-0.6,0.1-1,0.2-1,0.5c0,0.1,0,0.2,0.1,0.3c0.8-0.1,1.4-0.3,1.8-0.4c0.5-0.2,1.2-0.4,2.2-0.6c0.1,0.1,0.4,0.2,0.7,0.5l-0.2,0.2
		c0.1,0.1,0.1,0.2,0.2,0.2c-0.4,0.1-1.2,0.3-2.4,0.5c-1,0.2-1.8,0.4-2.3,0.7c-0.1,0.4-0.1,1.1-0.1,2.2c0,2.1,0.2,3.9,0.5,5.3
		c0,0,0,0.1,0,0.2c0,0.1,0.1,0.4,0.2,0.8c-0.1,0.1-0.3,0.3-0.5,0.7h-0.2c-0.1-0.2-0.3-0.3-0.4-0.3h-0.1c-0.4-0.2-0.6-0.5-0.6-0.8
		c0-0.1,0-0.3,0.1-0.5c0-0.2,0.1-0.4,0.1-0.6c0-0.1,0-0.2,0-0.3c0-0.3,0-0.8-0.1-1.5c-0.1-0.6-0.1-1.1-0.1-1.5c0-0.4,0-0.9,0.1-1.7
		c0.1-0.8,0.1-1.3,0.1-1.7c-0.1,0-0.2,0-0.2,0c-0.4,0-0.7,0.1-1,0.2c-0.1,0-0.2,0.1-0.4,0.2L52,232l-0.1,0l-0.1,0l0,0l0,0l0.1,0.2
		c0,0-0.1,0-0.1,0c-0.1,0-0.1,0-0.2,0.1c0.1,0.1,0.1,0.2,0.1,0.4c0,0.1,0,0.2,0.1,0.2l-0.3,0.1l0.1,0.2c-0.4,0.2-0.9,0.4-1.5,0.5
		c-0.3,0.1-0.8,0.3-1.4,0.5c-0.5,0.1-1.3,0.3-2.4,0.4c-0.5,0-1.3,0-2.3,0.2c-0.8-0.1-1.1-0.6-1.1-1.4c0-0.1,0-0.1,0-0.2
		c0-0.1,0-0.2,0-0.2c0.1-0.9,0.1-1.8,0.2-2.7c0.1-1,0.2-1.9,0.5-2.6l0.1-0.1v-0.1l0-0.1c0,0,0,0,0,0.1c0.1-0.3,0.2-0.6,0.3-0.9
		c0.1-0.1,0.2-0.2,0.4-0.5l0.8,0.1v0.1c0,0.1,0.1,0.2,0.2,0.3c-0.1,0.1-0.2,0.2-0.3,0.5v0.1c0,0.1,0,0.1,0.1,0.1
		c0.4-0.2,0.9-0.4,1.7-0.8c0-0.1-0.1-0.2-0.2-0.4c-0.1-0.2-0.2-0.3-0.2-0.4c0-0.1,0-0.1,0.1-0.3c0-0.1,0.1-0.2,0.1-0.3
		c0.4-0.5,0.9-1.3,1.3-2.3c0.1-0.1,0.1-0.2,0.2-0.4l0-0.1l-0.2,0c-0.3-0.1-0.7-0.3-1.2-0.6c-0.6,0.2-1.3,0.6-2.1,1.2
		c-1.1,0.8-1.8,1.3-1.9,1.4l-0.2,0.3c-0.1,0-0.3,0-0.3-0.2l-0.3,0.1c-0.1-0.1-0.3-0.2-0.4-0.3c-0.2-0.1-0.3-0.2-0.2-0.4l-0.2,0.1
		l-0.2-0.1l-0.1,0l-0.1,0c0-0.1-0.1-0.2-0.2-0.3c0,0-0.1,0-0.1,0l0,0c-0.1-0.2-0.3-0.4-0.4-0.5l-0.2,0.1c-0.1-0.1-0.1-0.2-0.1-0.3
		c0-0.1,0-0.2,0.1-0.3c0-0.2-0.1-0.3-0.2-0.5c0-0.1,0.1-0.2,0.1-0.3c0-0.7,0-1.1-0.1-1.2c0.1,0,0.2-0.2,0.3-0.4
		c0.1-0.2,0.2-0.3,0.3-0.4l0.2,0c0-0.1,0.3-0.4,0.7-0.7c0.4-0.3,0.7-0.5,0.8-0.7c0-0.1,0.1-0.1,0.1-0.1h0.2v-0.1
		c0,0,0.1-0.1,0.1-0.1h0l0.3-0.2l-0.2,0.2l0.1,0.1c0,0,0-0.1,0.1-0.1h0.2l0-0.2c0.1-0.1,0.4-0.2,0.8-0.4c0.3-0.1,0.8-0.2,1.4-0.4
		c0.1-0.1,0.3-0.2,0.6-0.4l0-0.1c-0.1,0-0.1,0,0.1,0h0.1l0,0l0.1,0h0.1l0.1,0l-0.1-0.1c0.1,0,0.3,0.1,0.7,0.3
		c0.3,0.1,0.5,0.2,0.7,0.2c0,0.1,0.2,0.3,0.4,0.4c0,0.1,0.3,0.4,0.8,1c0,0.1,0.1,0.3,0.2,0.6c-0.1,0.1-0.1,0.4-0.3,0.7
		c-0.1,0.2-0.3,0.5-0.5,0.8c0,0,0,0,0,0.1c0,0.1,0,0.1,0,0.2c0.7-0.1,1.1-0.1,1.1-0.1c0.5,0,1,0.3,1.5,0.9l-0.1,0.5
		c0.1,0,0.2,0.3,0.3,0.7c-0.3,0.5-0.8,1.3-1.4,2.3c0,0,0,0,0,0l0,0l0.1,0l-0.1,0l-0.3,0.3c0.1,0.1,0.2,0.1,0.5,0.1
		c0.1,0,0.2,0.1,0.4,0.2c0.2,0.1,0.4,0.2,0.5,0.1c0,0.2,0.2,0.3,0.4,0.4c0-0.1-0.1-0.2-0.1-0.3c-0.1-0.1-0.1-0.2-0.1-0.3
		c0,0,0.1,0,0.2-0.1c0,0,0.1,0,0.2,0c0.2-0.2,0.4-0.3,0.9-0.4c0.3-0.1,0.6-0.2,1-0.2c-0.4-0.1-0.8-0.4-1.1-1c-0.3-0.5-0.4-1-0.4-1.5
		c0-0.5,0-0.7,0-0.6c0-0.2,0.1-0.4,0.3-0.4l0.2,0.1c0-0.2,0-0.4,0-0.5c0.1,0,0.2-0.1,0.3-0.2c0.1,0,0.1,0,0.2,0c0,0,0,0,0.1,0
		c0.1,0,0.7,0.3,1.7,0.8c0,0,0.1,0.1,0.2,0.3c0.1,0.1,0.1,0.3,0.1,0.3c0,0,0,0.1,0,0.1c0.1,0.1,0.1,0.2,0.2,0.5c0,0.2,0,0.3,0.1,0.5
		c0,0.2,0.1,0.4,0.2,0.7c0.1-0.3,0.4-0.8,0.8-1.5c0.4-0.7,0.7-1.2,0.9-1.4c0.9-1,1.6-1.5,2.1-1.5c0.3,0.1,0.6,0.3,0.9,0.5
		c0.3,0.2,0.5,0.4,0.6,0.8c0,0.2-0.4,0.7-1.1,1.5c-0.7,0.8-1.1,1.4-1.1,1.7c0.3-0.1,0.7-0.2,1.2-0.2c0,0,0.1,0,0.1,0
		c0.1,0,0.4,0.1,0.6,0.2c0.1,0.1,0.2,0.2,0.3,0.4c0.1,0.1,0.2,0.2,0.3,0.3l-0.1,0.1C60.1,225.2,60.2,225.4,60.3,225.6z M43.5,235.9
		l-0.2,0.2l-0.3,0.1c0.1,0.2,0.1,0.4,0.2,0.7c-0.3,0.3-0.5,0.7-0.9,1.1c-0.1,0-0.2-0.1-0.4-0.1c-0.2,0-0.4-0.1-0.5-0.1l-0.2,0
		c-0.3-0.1-0.4-0.2-0.5-0.3c-0.1-0.1-0.1-0.3-0.1-0.5c0-0.1,0-0.2,0.1-0.3l0.1,0.1c0.4-0.4,0.7-0.6,1-0.6c0.1-0.3,0.3-0.4,0.7-0.5
		l0.1,0.1l0.2-0.1c0,0,0.1,0,0.2,0l0.1,0h0.1C43.3,235.8,43.4,235.8,43.5,235.9z M42.8,218.6h-0.2l-0.2,0.3L42.8,218.6z M50,232.8
		c-0.4-1.4-0.7-2.6-0.7-3.6c0-0.1,0-0.3,0-0.3c0-0.2-0.1-0.4-0.1-0.6c-0.4,0-1,0.2-1.6,0.4c-0.5,0.2-1,0.5-1.5,0.7
		c-0.3,0.1-0.6,0.2-1,0.4c-0.1-0.1-0.2-0.1-0.3-0.1c-0.1,0-0.2,0-0.2,0c0-0.1-0.1-0.3-0.4-0.5c-0.2,0.5-0.3,1-0.4,1.7
		c0,0.6-0.1,1.2-0.1,1.8c0,0.3,0,0.7,0.1,1.2h0.2C45.8,233.7,47.8,233.4,50,232.8z M46.2,236.8c0,0,0,0.2-0.1,0.4l-0.3,0
		c-0.1,0.1-0.2,0.2-0.2,0.3l0,0.1c-0.2,0-0.3,0-0.4,0l-0.1,0c-0.1,0-0.2,0-0.2,0c-0.2,0-0.4-0.1-0.7-0.2c-0.2-0.1-0.4-0.2-0.5-0.2
		l0-0.1l0,0c0.1,0,0.2-0.2,0.5-0.5c0.1,0,0.2,0,0.3,0l0-0.3l0.6-0.4c0,0,0.1,0,0.1,0c0,0,0.1,0,0.2,0l0.1,0l0.1,0l0.1,0.1
		c0,0.1,0.1,0.2,0.1,0.3c0,0.1,0.1,0.1,0.2,0.2c0,0.1,0,0.1,0,0.2C46.2,236.6,46.2,236.7,46.2,236.8z M48.8,230.2
		c-0.1,0.1-0.4,0.2-0.9,0.4c-0.4,0.1-0.7,0.3-0.8,0.5c0,0.1,0,0.2,0,0.3c0,0.1,0,0.3,0.1,0.5c0.1,0.2,0.1,0.3,0.1,0.5
		c0,0,0,0.1,0,0.1c-0.2,0-0.3,0.1-0.5,0.4c-0.1,0-0.1,0-0.2,0c-0.1,0-0.2,0-0.3,0c-0.1,0-0.2,0-0.2,0c-0.1-0.1-0.2-0.5-0.2-1.2
		c-0.2,0-0.3,0-0.4,0c-0.1,0-0.2,0-0.4,0c-0.2,0-0.3,0-0.3,0c0.2-0.2,0.3-0.3,0.5-0.5c0.2-0.1,0.4-0.2,0.6-0.3l0.2-0.8
		c0.1,0,0.1-0.1,0.3-0.2c0-0.1,0.2-0.2,0.4-0.4l0.5,0c0,0.1,0,0.2-0.1,0.3c0,0.1-0.1,0.2-0.1,0.3c0,0.1,0,0.1,0.1,0.2
		c0.1,0,0.2-0.1,0.5-0.3c0.2-0.1,0.4-0.2,0.5-0.2c0.1,0,0.3,0,0.4,0.1h0.1C48.7,230.1,48.8,230.2,48.8,230.2z M51.5,235.4v0.4
		c0,0.1,0,0.3-0.1,0.5h-0.1l-0.5,0.3l-0.2-0.2h-0.1c-0.1,0-0.1,0.1-0.2,0.1c-0.1-0.1-0.2-0.1-0.3-0.1c-0.1-0.1-0.2-0.2-0.4-0.3
		l0-0.1h-0.1c0,0.1,0,0.3,0,0.4c0,0.1-0.1,0.3-0.2,0.3l-0.3-0.1c0,0-0.1,0.1-0.1,0.1c0,0,0,0.1,0.1,0.1c0,0-0.1,0-0.1,0
		c-0.1,0-0.3,0.1-0.5,0.1l-0.1,0l0,0.1c-0.1-0.1-0.1-0.1-0.2-0.2c-0.1,0-0.3-0.1-0.6-0.2c-0.3-0.1-0.4-0.2-0.4-0.2
		c0-0.1,0.1-0.2,0.2-0.3c0.1-0.1,0.2-0.2,0.3-0.3c0.1-0.1,0.1-0.2,0.2-0.4l0.5-0.3c0,0,0.1,0,0.3,0c0.1,0,0.2,0,0.3-0.1l0.2,0.1
		l0.4,0.5c0.1,0,0.3-0.1,0.5-0.1c0.1-0.2,0.1-0.3,0.2-0.5c0-0.1,0.2-0.2,0.4-0.3c0.1,0,0.2-0.1,0.3-0.1c0.1,0.1,0.3,0.1,0.4,0.1
		C51.1,234.8,51.3,235,51.5,235.4z M47.4,232.6c0,0.1,0,0.1-0.1,0.1L47.4,232.6L47.4,232.6z M48.7,225.7v-0.1c0,0-0.1,0-0.1,0
		c0,0-0.1,0.1-0.2,0.2c0,0-0.1,0-0.3,0.1h0l-0.1,0.2C48.1,226,48.4,225.9,48.7,225.7z M49.3,224.8l-0.3,0.2h0
		C49.1,225,49.1,224.9,49.3,224.8z M49.5,224.4L49.5,224.4c-0.1,0.1-0.1,0.1-0.1,0.2l0.1,0.1C49.4,224.6,49.4,224.5,49.5,224.4z
		 M54.4,227.8l-0.2-0.2c-0.3,0.1-0.5,0.2-0.6,0.3c-0.1,0-0.3,0.1-0.6,0.2H53v-0.1l0,0h0.1l0.1,0c0,0-0.1-0.1-0.1-0.1l-0.2,0
		c-0.1,0.1-0.3,0.1-0.4,0.2c0,0-0.1,0.1-0.3,0.3l-0.1,0c-0.1,0-0.1,0-0.1,0c0,0-0.2-0.1-0.4-0.3c-0.1-0.1-0.2-0.1-0.4-0.3
		c0-0.1-0.2-0.2-0.4-0.4c0,0.7,0.1,1.7,0.2,3c0.1,0.2,0.2,0.5,0.3,0.9c0,0.1,0.1,0.3,0.1,0.4c0,0.1,0.1,0.2,0.2,0.3v0
		c0,0-0.1-0.1-0.1-0.1v0l0.2-0.2l-0.2-0.2c0-0.1,0.1-0.2,0.2-0.3c0.1-0.1,0.1-0.1,0.2-0.1c0.2-0.3,0.6-0.4,1.2-0.5
		c0.6-0.1,0.9-0.2,1-0.4c0-0.1,0-0.1-0.1-0.2c-0.1-0.1-0.2-0.1-0.2-0.1c-0.2,0-0.3,0.1-0.4,0.3c-0.1,0-0.2,0-0.3-0.1
		c-0.1-0.1-0.2-0.1-0.3-0.1c0-0.1,0-0.3,0-0.4c0-0.1,0-0.2,0-0.3c0.2-0.2,0.4-0.4,0.7-0.5c0.3-0.2,0.6-0.2,0.8-0.2
		c0.1-0.1,0.1-0.3,0.1-0.5C54.3,227.9,54.4,227.8,54.4,227.8z"/>
	<path class="st0" d="M66.3,236.6c0,0.1-0.1,0.3-0.2,0.7c-0.1,0.4-0.1,0.7-0.1,0.8c-0.4,0.3-0.7,0.4-1.1,0.5
		c-0.1-0.1-0.2-0.1-0.3-0.1c0,0-0.1,0-0.1,0c0,0-0.1,0-0.1,0c0,0,0,0,0,0.1c0,0-0.1,0.1-0.1,0.1l0.1,0.1c-0.2,0-0.6-0.1-1.1-0.3
		l-0.3,0.1c0,0-0.1,0-0.3-0.1l-0.1-0.1l0-0.1l0.3-0.6c0,0,0-0.1,0-0.2l0,0.1c0-0.1,0-0.2,0-0.4c0.1-0.1,0.2-0.3,0.2-0.5
		c0.4-0.4,0.6-0.8,0.8-1l0.6-0.1c0,0,0.4,0,1.3,0.1c0.1,0.1,0.1,0.2,0.2,0.2l0.1,0l0,0l0,0l0,0l0,0.1
		C66.2,236.3,66.3,236.4,66.3,236.6z M77.9,232.9l-0.1,0c-0.1,0.3-0.3,0.5-0.6,0.6c-0.2,0-0.5,0.1-0.9,0.1c-0.3,0-0.5,0-0.6,0
		c-0.3,0-0.5,0-0.5,0c0,0,0,0,0.1,0l0,0c-0.2,0-0.3-0.1-0.4-0.1c-0.1,0-0.7,0.1-1.9,0.4c-0.4,0-1,0.1-1.8,0.3l-0.2,0
		c-0.9,0-1.6,0.1-2.1,0.2c-0.1,0-0.2,0-0.2,0c-0.1,0-0.1,0-0.3,0.1c-0.1,0.1-0.2,0.1-0.2,0.1c0,0-0.1,0-0.1,0c0,0-0.1,0-0.1,0
		c-0.1,0-0.1,0-0.2,0c-0.1,0-0.2,0-0.3,0.1c-0.1,0-0.2,0.1-0.3,0.1c-0.2,0-0.5-0.1-0.9-0.2l-0.1,0.1c-0.2-0.1-0.3-0.2-0.5-0.2
		c-0.2-0.1-0.4-0.2-0.4-0.3c0-0.3-0.1-0.5-0.1-0.6l0.1-0.2v0.3c0.2-0.6,0.5-1.3,1-2.2l0,0c0,0,0,0-0.1,0c-0.3,0.4-0.4,0.7-0.5,0.9
		c-0.2,0.4-0.3,0.7-0.3,0.9c0-0.3,0.1-0.7,0.4-1.1c0.5-0.9,0.9-1.9,1.2-3.2c0.1-0.4,0.3-1,0.5-1.8c0.3-0.6,0.6-1,1.1-1
		c0.2,0,0.5,0.1,0.9,0.2l0.1,0c0.3,0.3,0.6,0.7,0.7,1.2c0.1,0,0.3-0.2,0.8-0.5c0.2-0.1,0.5-0.3,0.9-0.5c0,0-0.1-0.1-0.1-0.1
		c-0.1,0-0.2,0-0.2,0l0-0.1c0,0-0.1,0-0.1,0c-0.1,0-0.1,0.1-0.1,0.1l0,0c-0.1,0-0.2-0.1-0.4-0.2c0-0.1,0-0.2,0-0.3
		c0-0.1,0-0.2,0-0.3c0-0.1,0-0.2,0.1-0.3c0.1-0.1,0.1-0.2,0.2-0.3c0.1-0.5,0.3-1,0.5-1.4c0.2-0.6,0.4-1.1,0.6-1.4
		c-0.1,0-0.2,0-0.2,0c-0.1,0-0.2,0-0.3,0.1c-0.1,0.1-0.2,0.1-0.3,0.1l-0.1,0c0,0-0.1-0.1-0.2-0.1l-0.2,0c-0.1-0.1-0.2-0.2-0.3-0.3
		l0,0c0-0.1-0.1-0.1-0.2-0.2l0,0l0-0.1c0,0-0.1-0.1-0.1-0.1c0,0,0-0.1,0-0.2l0,0c-0.3,0.1-0.5,0.3-0.6,0.6c-0.3,0.3-0.8,0.7-1.4,1.3
		c-0.1,0.1-0.2,0.3-0.4,0.5c-0.1,0.1-0.2,0.2-0.3,0.3c0,0.1,0,0.1,0,0.2c-0.1,0-0.3,0.1-0.4,0.2c-0.1,0.1-0.2,0.2-0.3,0.2
		c-0.4-0.4-0.8-0.7-1.1-0.9l-0.2-0.5c-0.1,0-0.1,0-0.2,0h0c0-0.2-0.1-0.4-0.2-0.8c0,0-0.1,0-0.2,0l0,0l0-0.2
		c-0.1-0.1-0.1-0.1-0.2-0.1h-0.1l-0.1,0c0-0.1,0-0.2-0.1-0.3l0-0.1l0-0.3c0-0.1-0.1-0.2-0.1-0.3c0-0.2,0.1-0.4,0.2-0.6v-0.2h0.2
		l0,0.2c0.2-0.3,0.5-0.7,1.1-1.3c0.5-0.5,1-0.9,1.3-1.2h0.1c0.2-0.1,0.5-0.3,0.8-0.6c0.5-0.5,1.1-0.8,2-0.8c0,0,0.1,0,0.2,0l0.2,0.2
		c0,0,0.1-0.1,0.3-0.2c0.1,0,0.2,0.1,0.3,0.3c0.2,0.2,0.4,0.4,0.6,0.8c0.1,0.3,0.2,0.7,0.5,1.2l0,0h-0.1h-0.1l0,0v0.1l0.1,0.3
		c0,0-0.1,0-0.1,0.1c0,0,0,0.2-0.1,0.4l0,0.2c0,0-0.1,0.1-0.2,0.2c0,0,0,0.1,0.1,0.1c0.7-0.1,1-0.2,0.9-0.2c0.9,0,1.5,0,1.6,0.1
		c0.1,0.1,0.4,0.2,0.7,0.4c0,0.1,0.1,0.4,0.3,0.6c0.2,0.3,0.2,0.5,0.2,0.7v0.1l-0.3,0.2c-0.1,0.1-0.2,0.2-0.2,0.4
		c-0.2,0-0.5,0.2-0.9,0.4c-0.1,0-0.3,0.1-0.5,0.2c-0.3,0.2-0.7,0.7-1,1.6c-0.3,0.6-0.4,1.1-0.4,1.4c0,0,0,0.1,0,0.1
		c0.1,0,0.5-0.3,1.1-0.7c0.5-0.4,1-0.6,1.3-0.6c0-0.1,0-0.1,0.1-0.1l0.1,0.1h0.5c0.1,0.1,0.3,0.2,0.5,0.4c0.3,0.1,0.5,0.3,0.6,0.8
		c0.1,0.2,0.2,0.5,0.3,0.9l0,0.1l0.1,0l0,0h0c0,0.1,0,0.1,0,0.1c0,0,0,0,0,0v0.1c0,0.3,0,0.5,0.1,0.6h0l0,0l0,0.1l0.1,0.1l0,0.2
		c0.1,0.5,0.3,1.2,0.6,2.2c0,0.5,0.2,1.3,0.5,2.4h0.2L77.9,232.9z M66.2,231.4l0-0.1L66.2,231.4C66.2,231.4,66.2,231.4,66.2,231.4z
		 M66.9,229.3L66.9,229.3c-0.2,0.3-0.4,0.8-0.6,1.3c0,0.1,0,0.1-0.1,0.3c0,0.1-0.1,0.2-0.1,0.3v0.1l0,0c0-0.2,0.1-0.5,0.3-1
		C66.7,229.8,66.8,229.4,66.9,229.3z M75.5,231.7L75.5,231.7c-0.2-0.4-0.3-0.9-0.4-1.7l0.1,0.1l0.1-0.1c0-0.1-0.1-0.3-0.2-0.6
		c0,0,0-0.2,0-0.5c0-0.1-0.1-0.3-0.2-0.6c-0.1-0.2-0.1-0.4-0.1-0.6l0.1-0.2c-0.1-0.1-0.1-0.2-0.2-0.4l-0.2,0.1l0.1,0.3l0-0.1
		l-0.1-0.1l0,0v0.1c0,0,0-0.1,0-0.2c0,0-0.1,0-0.1,0v0.1h-0.2c0,0-0.1-0.1-0.2-0.1c-0.1,0-0.2,0-0.3,0.1c-0.2,0.1-0.4,0.2-0.7,0.3
		c-0.3,0.1-0.5,0.1-0.6,0.2c-0.1,0.1-0.2,0.1-0.3,0.2l0.1,0c0,0,0-0.1,0-0.2c-0.3,0-0.7,0.2-1.2,0.6c-0.5,0.4-0.9,0.6-1.2,0.7
		c-0.1,0.2-0.2,0.5-0.3,0.8l-0.2,0l-0.5,0.9c-0.2,0.4-0.3,0.7-0.3,0.9v0.1l0.1-0.2c-0.2,0.7-0.3,1.1-0.3,1.2c-0.1,0-0.1,0-0.2,0.1
		c0,0,0,0.1,0,0.2c0.3,0.1,0.6,0.1,1,0.1c0.1,0,0.4,0,0.7,0c0.3,0,0.5,0,0.7,0c0.1,0,0.3,0,0.5,0c0,0-0.1,0-0.1,0c0.1,0,0.3,0,0.6,0
		c0.8,0,1.5-0.2,2.2-0.6h0.1c0.6-0.3,1.2-0.4,1.8-0.5C75.4,232.1,75.4,232,75.5,231.7L75.5,231.7z M71.7,236.4
		c0,0.1-0.1,0.2-0.2,0.5c-0.2,0.3-0.2,0.4-0.3,0.5l-0.1-0.1l-0.1,0c-0.1,0-0.1,0-0.2,0c0,0,0,0.1,0,0.1l-0.2-0.1
		c-0.1,0-0.3,0.1-0.4,0.1c0,0-0.1,0-0.1,0.1c-0.1-0.1-0.5-0.1-0.9-0.1c-0.2-0.3-0.3-0.5-0.3-0.5c0-0.3,0.1-0.5,0.4-0.8
		c0.1,0,0.2-0.1,0.3-0.3l0.1,0h0.1l0-0.1c0.1,0,0.1-0.1,0.2-0.2c0.2,0.1,0.5,0.1,0.9,0.2l0.2-0.1l-0.1,0c0,0,0-0.1,0-0.1
		c0,0,0.1,0,0.1,0c0,0,0.1,0.1,0.3,0.2c0.2,0.2,0.3,0.3,0.3,0.3c0,0.1,0.1,0.1,0.1,0.1l0,0C71.7,236.3,71.7,236.3,71.7,236.4z
		 M75.1,230.8c-0.7,0.3-1.5,0.4-2.5,0.4c-0.1,0.1-0.3,0.3-0.4,0.5c-0.1,0.3-0.2,0.4-0.3,0.5l-0.1-0.1V232l0,0
		c-0.2,0-0.4,0.1-0.6,0.2l-0.2-0.1l-0.2,0.1c0,0-0.1-0.1-0.3-0.3l0,0c0.1-0.2,0.3-0.5,0.5-0.9c-0.2-0.1-0.4-0.2-0.6-0.3
		c-0.2-0.1-0.4-0.3-0.6-0.5c-0.1,0-0.2-0.1-0.3-0.3c0-0.2,0.1-0.4,0.3-0.4c0.2-0.1,0.4-0.1,0.6-0.2c0.2,0,0.5,0.1,0.6,0.2
		c0.2,0.1,0.4,0.2,0.5,0.3c0.1-0.7,0.4-1.1,0.8-1.4l0.1,0c0.2,0,0.4,0,0.4,0c0.1,0.1,0.3,0.2,0.5,0.2c0.1,0,0.3,0.2,0.5,0.5
		c-0.1,0.1-0.2,0.2-0.4,0.3h-0.1l0,0l0,0l0.1,0.1c0.7,0,1.1,0.1,1.4,0.2c0,0,0.1,0.1,0.3,0.4c0,0,0,0.1-0.1,0.1l0,0l0,0.1l0,0.1v0
		l0,0.1L75.1,230.8z M70.9,235.4l-0.1,0l-0.1-0.2l0.1,0C70.7,235.2,70.8,235.3,70.9,235.4C70.8,235.4,70.8,235.4,70.9,235.4z
		 M75.8,235.8c0,0.1-0.1,0.3-0.4,0.7h-0.1c0,0-0.1,0-0.1,0l-0.1-0.1c-0.3,0-0.6,0-1.1,0.2l-0.1-0.1c-0.2,0-0.3,0-0.4-0.1l-0.1,0.1
		l-0.1,0l-0.1-0.1c0,0-0.1,0-0.2,0l-0.1,0c0,0,0-0.1,0-0.1c0-0.2,0.2-0.4,0.6-0.8l0,0c0.4-0.2,0.7-0.3,0.7-0.3c0.1,0,0.3,0,0.5,0.1
		c0.2,0.1,0.4,0.1,0.5,0.1c0.1,0,0.1,0,0.2,0V235c0,0.1,0.1,0.2,0.2,0.4C75.8,235.5,75.8,235.7,75.8,235.8z M74.7,228.2l-0.1,0
		L74.7,228.2L74.7,228.2l0,0.1c0,0,0,0,0,0c0-0.1,0-0.3-0.1-0.3l0-0.1v-0.1L74.7,228.2z M75.4,230.8l-0.2-0.7v0.1
		C75.2,230.4,75.3,230.6,75.4,230.8z M80.9,235.4c0,0.2-0.1,0.3-0.3,0.5c0,0-0.1,0-0.1,0c-0.1,0-0.1,0-0.2,0.1
		c-0.1,0.1-0.2,0.1-0.2,0.1v0.1l0,0.1l-0.1,0l-0.1,0l-0.1,0.1c-0.1,0-0.2-0.1-0.3-0.1c-0.2,0-0.3,0.1-0.4,0.2l-0.3-0.2l-0.2,0.1
		c-0.1-0.1-0.2-0.2-0.4-0.3H78c-0.2-0.1-0.3-0.2-0.4-0.4c-0.1-0.2-0.2-0.3-0.2-0.3l-0.1,0c0,0-0.1,0.1-0.1,0.1l0,0.2
		c0-0.1-0.1-0.2-0.2-0.3c0,0,0-0.1,0-0.1c0.1-0.2,0.2-0.4,0.4-0.6c0.1-0.1,0.3-0.2,0.6-0.4c0.1,0,0.2,0,0.3,0c0.2,0,0.4,0,0.7,0.1
		l0.1-0.1c0.1,0,0.2,0.1,0.3,0.2l0.2-0.1c0.4,0,0.8,0.2,1.1,0.5c0,0,0,0.1,0,0.1c0,0.1,0,0.1,0,0.2
		C80.9,235.3,80.9,235.4,80.9,235.4z"/>
	<path class="st0" d="M94.9,229.1c0,0.5-0.1,0.9-0.2,1.2c-0.1,0.3-0.6,0.8-1.3,1.7c-0.7,0.8-1.2,1.3-1.5,1.6
		c-0.2,0.2-0.4,0.4-0.6,0.6c-0.2,0.2-0.4,0.5-0.5,0.7l0.1-0.4l-0.4,0.3l0.3-0.3c-0.1-0.1-0.2-0.3-0.2-0.4c0.2-0.2,0.4-0.4,0.8-0.8
		c0.6-1,1.2-2,1.5-3.1c0-0.1,0-0.3-0.1-0.5c-0.4-0.1-0.7-0.1-1.1-0.1c-0.6,0-1.4,0.1-2.4,0.3c-1,0.2-1.8,0.4-2.5,0.6
		c-2,0.7-3.1,1.1-3.1,1.1c-0.5,0-1-0.2-1.2-0.6c0,0-0.2-0.5-0.6-1.3c-0.3-0.6-0.4-0.9-0.4-0.9c0-0.1,0-0.2,0-0.4c0-0.2,0-0.3,0-0.4
		c0.2-0.2,0.4-0.4,0.7-0.5c0.3-0.1,0.6-0.2,0.9-0.2c0.4-0.1,0.9-0.3,1.7-0.5c2-0.6,4-0.8,5.9-0.8c1.8,0,3,0.6,3.6,1.9
		C94.7,228.1,94.9,228.6,94.9,229.1z M96.4,225.3c0,0.1-0.1,0.3-0.4,0.6c-0.3,0-0.6-0.2-0.8-0.4c-0.2-0.3-0.3-0.5-0.3-0.9
		c0-0.2,0.1-0.5,0.2-0.8l0.1,0.2v-0.2c0.3,0,0.5,0.2,0.8,0.6C96.3,224.7,96.4,225,96.4,225.3z M98.6,224.8c-0.1,0-0.2,0.1-0.3,0.3
		c-0.1,0.2-0.1,0.3-0.2,0.3c-0.1,0-0.3,0.2-0.5,0.4l0,0c0,0-0.1-0.1-0.1-0.1c0-0.1-0.1-0.1-0.1-0.1c-0.1,0-0.1,0-0.1,0l-0.1-0.1
		c0,0-0.1,0-0.1,0c0,0-0.1,0-0.1,0v0c0,0,0-0.1-0.1-0.2l-0.1-0.2c0-0.2-0.1-0.5-0.2-0.8c0-0.1,0-0.2,0.1-0.3
		c0.1-0.1,0.2-0.2,0.3-0.4c0.1,0,0.2-0.1,0.4-0.3c0,0,0.1,0,0.2,0c0.1,0.1,0.1,0.1,0.2,0.2c0.1,0,0.1,0.1,0.2,0.3
		c0.1,0.1,0.2,0.1,0.3,0.2c0,0.1,0.1,0.3,0.2,0.5C98.5,224.5,98.6,224.6,98.6,224.8z"/>
	<path class="st0" d="M113.2,223.3c-0.1,0.1-0.2,0.3-0.2,0.7c-0.1,0.1-0.7,0.3-1.6,0.6c-0.3,0.1-0.6,0.3-1.2,0.6
		c-0.4,0.1-0.9,0.3-1.6,0.6c-0.2,0.1-0.5,0.3-0.9,0.5c-0.4,0.3-0.7,0.4-1,0.6c0,0.1-0.1,0.1-0.1,0.1v0.2c0,0.1-0.1,0.2-0.2,0.3
		c-0.1,0.1-0.2,0.2-0.2,0.2c0,0-0.1,0.1-0.2,0.1c0,0,0,0.1,0,0.2l0,0c0,0-0.1,0-0.2,0.1v0l0,0l0.1,0c-0.1,0.1-0.3,0.2-0.5,0.3h-0.1
		c-0.1,0.2-0.3,0.4-0.5,0.7c-0.4,0.4-0.8,0.9-1.2,1.5h-0.1v0l0,0l0,0l0,0v0c0,0,0,0.1,0,0.1c0,0,0-0.1,0-0.1l0,0c0,0-0.1,0-0.1,0
		l0,0.1c0,0.1,0,0.1,0,0.1h0.1c0,0.1,0.1,0.1,0.1,0.2h-0.2c0.1,0.1,0.7,0.5,1.7,1.3c1,0.8,1.5,1.3,1.7,1.4c0.2,0.3,0.5,0.6,0.8,0.9
		c0.3,0.3,0.6,0.5,0.9,0.6c0.8-0.5,1.4-0.8,1.9-0.8c0.2,0,0.4,0.1,0.6,0.3c0.2,0.2,0.4,0.4,0.5,0.5H111v0.2l-0.2-0.1l-0.1,0.1l0,0
		l0,0c-0.3,0.1-0.5,0.1-0.6,0.2c0,0-0.1,0.1-0.1,0.2l-0.2-0.1c-0.3,0-0.6,0.2-0.8,0.5c-0.4-0.2-0.8-0.4-1.2-0.8
		c-0.3-0.4-0.7-0.7-1-1.1c-0.6-0.6-1.2-1.2-1.8-1.7c-0.5-0.4-0.8-0.6-1-0.8c-0.4-0.3-0.8-0.4-1.1-0.5l-0.5-0.5c-0.1,0-0.2,0.1-0.3,0
		l-0.1,0c0-0.1,0-0.1,0-0.2c0,0,0,0,0.1,0c0,0,0.1,0,0.1,0h0.1c0,0-0.1-0.1-0.2-0.2l-0.1,0c-0.1,0-0.2,0.1-0.3,0.1l-0.1,0l0-0.1
		c0-0.1,0.1-0.1,0.1-0.1c0-0.1-0.1-0.1-0.2-0.1c-0.1,0-0.2,0-0.3-0.1c-0.1-0.1-0.1-0.2-0.2-0.3c0-0.1-0.1-0.3-0.2-0.6
		c0-0.1,0.2-0.4,0.5-0.8c0.7-1,1.3-1.7,1.6-2.1c0.6-0.7,1.3-1.3,2-1.8l0.3-0.1l0.9-0.7l0-0.2c0.3-0.3,0.6-0.6,1.1-0.9
		c0.4-0.3,0.8-0.5,1.2-0.8c0.4-0.3,0.8-0.5,1.2-0.8c0.5-0.3,1-0.5,1.3-0.5c0.4,0,0.9,0.3,1.5,0.9
		C112.8,222.3,113.1,222.8,113.2,223.3z"/>
	<path class="st0" d="M126.8,234.2c-0.3,0.3-0.5,0.4-0.8,0.5c-0.3,0.1-0.8,0.2-1.4,0.4c-0.6,0.3-1.6,0.7-3,1.2
		c-0.4,0.1-1.1,0.2-1.9,0.5c-0.7-0.2-1.1-0.7-1.1-1.4c0-1.3,0.4-3,1.1-5c0.1-0.3,0.2-0.8,0.5-1.5c0.4-1,0.6-1.8,0.6-2.5
		c0-0.1,0-0.4-0.1-0.7c-0.1-0.3-0.1-0.5-0.1-0.7c-0.1-0.1-0.2-0.3-0.2-0.6c0-0.1-0.2-0.3-0.5-0.5c-0.4-0.3-0.6-0.4-0.7-0.4
		c-0.6-0.7-1-1.2-1.1-1.3c0-0.3,0.2-0.7,0.6-1.2c0.3-0.1,0.5-0.1,0.8-0.1c0.6,0,1.2,0.2,1.9,0.5c0.6,0.3,1.2,0.8,1.6,1.3
		c0.4,0.5,0.6,0.9,0.6,1.3c0,0.2-0.1,0.4-0.4,0.7c-0.2,0.2-0.3,0.4-0.5,0.6c-0.1,0.1-0.2,0.4-0.2,0.7c-0.1,0.4-0.2,0.8-0.3,1
		c-0.2,0.3-0.3,0.5-0.5,0.8c-0.1,0.2-0.3,0.9-0.5,1.9H121c0,0,0,0,0,0.1l0,0l0,0c0,0,0.1,0,0.1-0.1h0l0,0.1c-0.1,0-0.2,0.1-0.2,0.1
		c-0.1,0.1-0.2,0.3-0.3,0.7c-0.1,0.2-0.2,0.5-0.3,0.8c-0.3,0.8-0.4,1.6-0.4,2.3c0,0.1,0,0.2,0,0.3c0,0.1,0,0.2,0,0.3
		c0,0.4,0.1,0.8,0.4,1.3c0.7,0,1.8-0.3,3.2-0.9c1.4-0.6,2.3-0.9,2.6-0.9C126.3,233.8,126.6,233.9,126.8,234.2z"/>
</g>
<g>
	<g>
		<path class="st1" d="M231.7,34.3c-4.6,0.2-16.6,1.8-18.6,12.1c-2.1,10.6-3,22.8,2.2,29.5c5.2,6.7,16.8,6.4,24.1,5
			c6.2-1.2,13.3-1.7,16-12.1c1.7-6.6,0.1-21.3-3.8-26.5C246.2,34.9,236.2,34.1,231.7,34.3L231.7,34.3z"/>
		<g>
			<path class="st0" d="M231.9,36.4c-0.2,0-0.1,0.3-0.1,0.4C232.1,36.7,231.9,36.3,231.9,36.4z"/>
			<polygon class="st0" points="235.4,35.6 235.3,35.8 235.9,35.5 			"/>
			<path class="st0" d="M238.7,36.1c-0.2-0.7-1.2-0.1-1.7-0.4l-0.1-0.2l-0.3,0.5C237.2,36,238.2,35.8,238.7,36.1z"/>
			<path class="st0" d="M240,37.8c0-0.3,0.4-0.1-0.4-0.2c0,0,0,0.1,0.1,0.1C239.8,37.7,239.9,37.8,240,37.8z"/>
			<path class="st0" d="M239.7,37.7C239.4,37.7,239.9,38,239.7,37.7L239.7,37.7z"/>
			<path class="st0" d="M241.2,38l-0.5,0.1c0,0.2,0.4,0.3,0.2,0.4C241.4,38.5,241.4,38.3,241.2,38z"/>
			<path class="st0" d="M241.8,37.7l-0.2,0C241.5,37.8,241.6,37.8,241.8,37.7z"/>
			<path class="st0" d="M241,37.8l0.5,0c0-0.1,0-0.3-0.2,0C241.4,37.6,241.2,37.7,241,37.8z"/>
			<path class="st0" d="M240.8,37.6c-0.2-0.2-0.5-0.4,0-0.5C239.9,37,240,37.4,240.8,37.6z"/>
			<path class="st0" d="M239,35.5l-0.3-0.3l-0.3,0.1C238.5,35.3,239,35.7,239,35.5z"/>
			<path class="st0" d="M243.6,39.3c0.1-0.1,0-0.4,0.1-0.5l-0.3,0C243.4,38.9,243.6,39.1,243.6,39.3z"/>
			<path class="st0" d="M243.6,38.7l0.5,0C243.8,38.5,243.7,38.6,243.6,38.7z"/>
			<polygon class="st0" points="242.1,37.1 241.1,37.3 242.2,37.1 			"/>
			<polygon class="st0" points="245.1,40.1 244.7,40.3 245.4,40.1 			"/>
			<path class="st0" d="M246.1,40.7c-0.3,0.1,0,0.5-0.3,0.5c0.3,0.1,0.6,0.1,0.9,0.1C246.5,41.2,246.3,41.1,246.1,40.7z"/>
			<path class="st0" d="M247.2,41.4c-0.1,0-0.3,0-0.5,0C246.9,41.4,247,41.4,247.2,41.4z"/>
			<path class="st0" d="M244.9,39.2c0,0.1,0,0.3,0.1,0.5l0-0.4C245,39.2,244.9,39.2,244.9,39.2z"/>
			<path class="st0" d="M245,39.3L245,39.3c0.2,0.1,0.3,0.2,0.3,0.2C245.3,39.5,245.2,39.4,245,39.3z"/>
			<path class="st0" d="M244.8,39.2L244.8,39.2C244.9,39.1,244.9,39.1,244.8,39.2z"/>
			<path class="st0" d="M243.2,37.9c0.4-0.1,1,0,0.6-0.6C243.5,37.5,243.7,37.8,243.2,37.9z"/>
			<path class="st0" d="M244.8,38.6c-0.1-0.1-0.3-0.2-0.4-0.3c0,0.1,0,0.3-0.2,0.3C244.4,38.6,244.6,38.6,244.8,38.6z"/>
			<polygon class="st0" points="245.1,38.7 244.8,38.6 245,38.8 			"/>
			<path class="st0" d="M246.8,40.6c0.3,0,0.5,0.1,0.7,0.3c-0.2-0.2-0.4-0.5-0.6-0.6C246.7,40.3,246.5,40.4,246.8,40.6z"/>
			<path class="st0" d="M246,39.9L246,39.9C246,39.8,246,39.8,246,39.9z"/>
			<polygon class="st0" points="249.3,42.7 249.3,42.6 249.3,42.6 			"/>
			<path class="st0" d="M246.8,40.1c-0.1-0.2-0.3-0.2-0.5-0.2C246.5,40,246.7,40.1,246.8,40.1C246.9,40.2,246.9,40.2,246.8,40.1z"/>
			<path class="st0" d="M247.9,41.7c0-0.1-0.1-0.3-0.1-0.4C247.7,41.5,247.8,41.7,247.9,41.7z"/>
			<path class="st0" d="M246,40C246,40,246,40,246,40C246,40.1,246,40.1,246,40z"/>
			<path class="st0" d="M246,40c0.1,0,0.2,0,0.4,0c-0.1-0.1-0.2-0.1-0.4-0.1C246,39.9,246,40,246,40z"/>
			<path class="st0" d="M251.7,41.8c-0.3,0.2-0.9-0.1-1-0.8c-0.6-0.2-1.1,0.8-1.3,1.5c0.1-0.1,0.2-0.2,0.7,0.1c0-0.2-0.4-1.2,0.1-1
				c0.6,0.4,0.3,0.5,0.3,0.9c0.2-0.5,1.1,0.3,1.5-0.2c-0.2-0.1-0.4-0.3-0.6-0.4C251.5,41.9,251.7,42,251.7,41.8z"/>
			<path class="st0" d="M248.7,41.9l-0.2-0.1c0.1,0.2,0.1,0.4,0.2,0.8c0.3,0.1,0.5,0.1,0.6,0C249.1,42.3,248.9,42.1,248.7,41.9
				L248.7,41.9z"/>
			<path class="st0" d="M247.9,41.1c0.4-0.2,0.8,0.1,0.9-0.5c-0.5-0.4-0.5,0-0.9-0.2C248.7,41.1,247.5,40.5,247.9,41.1
				c-0.2-0.1-0.3-0.2-0.4-0.3c0.1,0.1,0.2,0.3,0.3,0.4c0,0,0,0,0,0l0,0l0,0c0-0.1,0-0.1,0,0c0,0,0,0,0,0
				C247.8,41.2,247.8,41.2,247.9,41.1c0.2,0.2,0,0.1-0.1,0.1c0,0,0,0,0,0l0,0c0.3,0.1,0.6,0.3,0.8,0.5
				C248.4,41.6,248.3,41.4,247.9,41.1z"/>
			<path class="st0" d="M244.6,36.8C244.6,36.9,244.6,36.9,244.6,36.8C244.7,36.9,244.7,36.9,244.6,36.8z"/>
			<path class="st0" d="M244.9,37.2c-0.1,0-0.2,0.1-0.4,0c-0.1-0.2,0.1-0.2,0.1-0.3c-0.2,0-0.6,0-0.2,0.4l0.1,0
				c0.3,0.3,0.6,0.9,0.5,1C245,37.9,245,37.6,244.9,37.2z"/>
			<path class="st0" d="M246.6,39l0.8,0.3l-0.2-0.5l-0.1,0.2C246.8,38.7,246.8,39,246.6,39z"/>
			<polygon class="st0" points="249.2,42.8 248.9,43 249.6,43 			"/>
			<polygon class="st0" points="249.9,43.6 249.6,43.8 249.9,43.9 			"/>
			<path class="st0" d="M221.7,82.4l-0.3,0C221.5,82.4,221.6,82.4,221.7,82.4z"/>
			<path class="st0" d="M223.7,83l0.1-0.2C223.7,82.9,223.6,83,223.7,83z"/>
			<path class="st0" d="M252.9,69.6c-0.4,0.2-1,0.4-0.6,0.5l0.4,0C252.7,69.9,252.8,69.7,252.9,69.6z"/>
			<path class="st0" d="M239.8,80.9c0,0,0.1,0.1,0.1,0.1c0.1-0.1,0.1-0.3,0.2-0.4C240,80.7,239.9,80.8,239.8,80.9z"/>
			<path class="st0" d="M239.8,82.4l-0.6-0.1C239.4,82.4,239.6,82.4,239.8,82.4z"/>
			<path class="st0" d="M212.1,75.4l-0.5-0.1C211.9,75.8,211.9,75.5,212.1,75.4z"/>
			<path class="st0" d="M253.4,53.9c-0.1,0.3-0.1,0.6-0.1,0.8C253.4,54.3,253.7,54,253.4,53.9z"/>
			<path class="st0" d="M223.6,78.8c-0.2,0-0.2,0.1-0.3,0.2C223.5,79,223.6,78.9,223.6,78.8z"/>
			<path class="st0" d="M253.4,55.7c0-0.1,0-0.1,0.1-0.2c-0.1-0.2-0.2-0.5-0.2-0.7C253.2,55.1,253.1,55.4,253.4,55.7z"/>
			<path class="st0" d="M216.9,36.7c0,0,0.1,0,0.1,0C217,36.6,217,36.7,216.9,36.7z"/>
			<path class="st0" d="M228.7,36.2c-0.1,0-0.3,0.1-0.4,0.1C228.4,36.3,228.5,36.3,228.7,36.2z"/>
			<path class="st0" d="M251.5,47.3C251.4,47.1,251.5,47.3,251.5,47.3L251.5,47.3z"/>
			<path class="st0" d="M252.5,45.7c0.1,0,0.1,0,0.2,0C252.6,45.8,252.5,45.7,252.5,45.7z"/>
			<path class="st0" d="M256,57.8L256,57.8C256,57.8,256,57.8,256,57.8z"/>
			<path class="st0" d="M251.6,46.9c0,0.1,0,0.2,0,0.3C251.6,47.2,251.6,47.1,251.6,46.9z"/>
			<path class="st0" d="M251.4,47c0-0.1,0-0.1,0-0.2C251.3,46.8,251.3,46.8,251.4,47z"/>
			<path class="st0" d="M251.6,47.6c0-0.1-0.1-0.2-0.1-0.4c0,0.1,0,0.1,0,0.1C251.5,47.4,251.6,47.4,251.6,47.6z"/>
			<path class="st0" d="M210.5,56.9C210.5,56.9,210.5,56.9,210.5,56.9C210.4,56.6,210.4,56.7,210.5,56.9z"/>
			<path class="st0" d="M253.1,77C253.1,77,253.1,77,253.1,77C253.1,77,253.1,77,253.1,77L253.1,77z"/>
			<path class="st0" d="M252.6,78c0-0.6,0.2-0.8,0.5-0.9c-0.3-0.2-0.7-0.3-1-0.5C252.2,77,252.4,77.5,252.6,78z"/>
			<path class="st0" d="M217,80.3l0.4,0.7c-1,0-1.5-0.6-1.2,0.2c0.4-0.5,1,0,1.6,0.3c0.6,0.3,1.3,0.6,1.6,0.1l0.3,0.4
				c-0.1-0.1-0.2,0-0.3-0.1c0.6,0.9,1-0.5,1.9,0c0.3,0.2,0.6,0.4,0.3,0.5l0.9,0c0.2,0.1,0.1,0.3-0.1,0.2c0.4,0.1,0.9,0.2,1.3,0.2
				l0,0c0.2-0.1,0.7-0.3,0.9-0.4c0.3,0.2-0.2,0.1-0.1,0.2c0.3,0,0.5-0.1,0.8-0.2c0.2,0.3-0.4,0.6-0.9,0.4c0.5,1.3,0.6-0.2,2,0.7
				c-0.2,0-0.5,0-0.7,0c0.4,0.7,0.9,0.6,1.7,1c-0.2-0.2-1.5-1.2-0.6-1.4c0.2,0.1,0.5,0.2,0.9,0c0,0.4,0.4,0.4,0.9,0.4l-0.1,0.6
				c0.6-0.1,0.5-0.4,0.9-0.6c0.6,0.1,0.7,0.5,0.9,0.9c1,0.1-0.7-0.7,0.5-0.8c0.8,0.2,1.4,0,2.4-0.4c0.6,0.2-0.1,0.3,0.1,0.5l0.5-0.5
				c0.1,0,0.1,0.1,0.1,0.2c0.4-0.2,0-0.6,0.6-0.8c0.1-0.6,1.4,0.8,2.2,0c0.2,0.1-0.1,0.3,0,0.6c1.1-0.6,0.9-0.5,1.7-1.2l0.8,0.2
				c-0.6-0.3,0-0.9,0.5-1.4c-0.2-0.2-0.4-0.3-0.6-0.4l0.9-0.5c0.1,0.1,0.1,0.3,0,0.5c0.1-0.1,0.1-0.1,0.2-0.2
				c0.4,0.1,0.3,0.5,0.1,0.8c-0.1-0.1-0.3-0.2-0.4-0.3c-0.2,0.4-0.3,0.8-0.2,1.1c0.1-0.1,0.2-0.2,0.3-0.2c0,0.1-0.1,0.2,0,0.2
				c0,0.1,0.1-0.1,0.3-0.3l0.3,0.6l0-0.3l1.4,0.1c0.8-0.8,1.5-1.8,2.8-2.5c-0.2,0.5,0.1,0.7,0.2,1.3c-0.5-0.4-1.1,0.5-1.9,0.6
				c0.4,0,0.4,0.2,0.3,0.4l1.3-0.8c0.1,0.4,0.4,0.2,0.8,0.3c-0.3-0.4,0-0.6,0.3-0.8c0.3-0.2,0.8-0.3,1-0.5c0.1,0.3,0.1,0.6-0.6,0.7
				c1,0.4,0.7-1.3,1.6-1.1c-0.2,0.1-0.3,0.1-0.3,0.2c0.3-0.4,1.3-0.6,1.2-0.3l-0.2,0.1c0.3-0.1,0.6-0.3,1-0.5c0.3-0.2,0.7-0.5,1-0.7
				c0.6-0.6,1-1.1,0.8-1.5c0.1,0.1,0.5,0.8,0.5,0.9c0-0.6,0-1.1,0-1.6c0-0.5-0.1-1-0.2-1.6c0.4,0.6,2,1,1.6,2c0.3-0.2,0.6-0.4,0.8-1
				c-0.2,0.1-1-0.2-0.9-0.4c1-0.1,0.6-0.2,1.6-0.6c-0.3,0.2-0.9-0.6-0.7-1c0.1,0.1,0.9,0.5,0.9,0.7c-0.1-0.5-0.2-1-0.3-1.5
				c0,0.3,0.7,0.4,1.1,0.3c-0.1,0,0-0.2,0.2-0.5c0.1-0.3,0.3-0.6,0.3-0.8l-0.4,0.4c0.6-1.2-0.8-1.7-0.4-2.8c0.2,0.2,1.1,0.7,1.4,0.2
				c-0.2-0.2-0.7-0.7-1.1-1.2c-0.5-0.5-0.9-1.1-1-1.6l0.3-0.1l-0.2-0.8c0.3,0.3,0.9,0.8,1.3,1.4c0.4,0.6,0.9,1.3,1,1.8
				c0.4-0.4,0.4,0,0.5-0.8c0.3-0.2,0.3,0.5,0.3,0.7c0.2-0.6,0.4-1.2,0.5-1.7c-0.6,0-0.4-1.4-0.9-1.4c0.1,0.6,0.3,1.2,0.3,1.9
				c-0.6-0.1-1.4-1.3-1.2-2.4c0.3-0.3,1,0.3,1.2,0.3c-0.2-0.2-0.3-1.1-0.1-1.2l0.3,0.5c0.3-0.6-0.7-1.1-0.1-1.8
				c0-0.3,0.8-0.8,0.4-0.8c-0.7,0.4-2.7,0.4-3.2,0.2c0.1-0.1,0.6-1.3,1-1.6c0.5-0.4,1.2,0.6,1.7,0.3c-0.2,0-0.4-0.3-0.4-0.3
				c0.1-0.3,0.5,0.1,0.4-0.5c-0.6-0.1,0-1.2-0.5-0.3c-0.2-0.6,0.1-0.6,0-1.3c-0.4,0.2-1.3-0.5-1.5-1.1c0.2,0,0.3-0.1,0.4-0.2
				c0-1.2,0.1-1.8,0-2.9c0.1-0.1,0.2-0.7,0.5-0.5c-0.1-0.1-0.3-0.3-0.4-0.6c0.4-0.7,0.2,0.7,0.7,0.2c-0.3,0-0.6-0.8-0.9-1.2
				c-0.5,0.2,0.1,1.1,0.4,1.6c-0.7,0.1-1.6-0.6-2.1-1.7c-0.3-0.8,0.4-0.5,0.3-0.6c-0.2-1.7-1.5-1.1-1.3-2.6c0.3-0.6,0.9-0.3,1.2-0.5
				c0.4,0.7,0,1.2,0.1,1.6l0.1-0.6c0.2,0.2,0.4,0.6,0.4,0.9c0.1-0.3,0-1-0.2-1.8c-0.2-0.8-0.4-1.7-0.5-2.4c-0.2-0.2-0.5-0.5-0.6-0.3
				l0.2,0.4c-0.2,0.5-0.7-0.6-0.7,0c-0.4-0.4-1-0.8-1.1-1.6l0.4-0.3c-0.1,0.1-0.1,0.6,0.1,0.7c-0.2-0.1-0.1-0.4-0.1-0.8
				c0-0.3-0.1-0.6-0.5-0.6l-0.1,0.6c-0.5-0.4-1.2-0.6-1.4-1.2c-0.3,0.5,0.1,0.1-0.2,0.7c0.5-0.7,0.7,1.4,1.1,0.5
				c-0.4,0.7,0,0.9-0.3,1.6c0.2-0.1,0.2-0.3,0.3,0.2c0.1,0,0.1,0,0.2,0.1c0,0,0,0,0,0l0,0c0,0,0,0,0,0c0-0.1,0.1-0.3,0.1-0.3
				c0.5,0.1,0.7,0.9,1,1.2c0,0.3-0.2-0.1-0.4,0.2c0.1,0.1,0.3,0.2,0.4,0.3c-0.4,0.2-0.4,1-0.8,0.3l0.2,0.7c-0.1,0.4,0,1,0.2,1.3
				c0,0.3,0.6,0.7,0.2,0.5c0.2,0.3,0.3,0.7,0.5,1l-0.1,0c0.2,1.1,1,2.1,0.5,3.4c0.1,0.4,0.3,0.7,0.3,1.3l-0.3,0.2
				c0.2,0.5-0.2,1.4,0.1,1.6c-0.9,0.6-0.1,2.3-0.2,3.1l0.4,0c0,0.6,0.1,1.1,0.3,1.8l0.4,0c0.3,0.6-0.4,1.5-0.4,2.5
				c-0.1-0.1-0.1-0.3,0-0.5c-0.5,0.5-0.4,1.1-0.3,1.7c0.1,0.6,0.2,1.2-0.3,1.5c0.1,0.3,0,0.4-0.2,0.6c0,0,0,0,0-0.1c0,0,0,0.1,0,0.1
				c-0.1,0.1-0.2,0.2-0.3,0.3c0.1-0.1,0.2-0.1,0.3-0.2c-0.1,0.2-0.1,0.5-0.1,0.8l-0.4,0c0,0,0,0,0,0.1c-0.2,0.2,0.1,0.3,0.4,0.2
				c0,0.2,0,0.3,0.1,0.4c-0.7-0.1-0.1,0.8-0.9,0.8c0.2,0.3-0.4,1.4,0.1,1.9c-0.1,0-0.2,0-0.1-0.1c-0.2,0.2-0.5,0.4-0.5,0.8l-0.5-0.2
				c0,0.3,0.1,0.6,0.1,1c-0.5,0.1-0.8,0.1-0.8-0.5c-0.1,0.6-0.2,0.7-0.3,0.9c-0.1,0.2-0.2,0.3-0.3,0.8l-0.2-0.3
				c-0.2,0.2-0.3,0.9-0.7,0.7c-0.5-0.1-1.2,0.4-2,0.7c-0.9,0.4-2,0.7-2.9,0.7c0.6,0.9-0.9-0.2-0.8,0.5c-0.2-0.2-0.4-0.3-0.2-0.6
				c-0.9,0.4-1.5-0.1-2,0.7c-0.2-0.2,0.1-0.4,0-0.5c-0.1,0.1-0.3,0.3-0.4,0.1c-0.1-0.1,0.1-0.2,0.2-0.4c-1,0.2-0.9,1-0.9,1.7
				c-0.6-0.2-0.8-0.1-1.1,0.4c-0.2-0.2-0.5-0.4,0-0.6c-0.4,0-2.1,0-2.1,0.6c-0.1-0.1-0.5,0-0.6,0.1c-0.8,0.1-0.8,0-1.6,0.2l0.2,0.1
				c-0.2,0.7-0.6,0.2-1.2,0.3l0-0.1c-1.4-0.4-0.6,0.3-2-0.2l0.1,0.4c-0.1,0.9-1.2-0.5-2-0.2l0.3,0.2c-0.5,0.3-1.2-1.3-1.6-1.4
				c-0.1-0.1,0.2-0.1,0.3-0.2c-1.1-0.6-0.2,0.5-1,0.6c-0.1-0.3,0.3-0.7-0.3-0.8c-0.1-0.1-0.5,0.1-1,0.2c-0.5,0.1-1,0.2-1.3-0.1
				c0.1,0.2,0.2,0.5-0.2,0.6c-0.6,0-1.3-1.1-2-0.6c-0.1-0.1-0.1-0.1,0-0.2c-0.2,0-0.6,0-1,0c-0.4,0-0.7,0-0.9,0.1
				c0.1-0.7-0.6-0.8-1.2-1c-0.3-0.1-0.6-0.1-0.8-0.2c-0.2-0.1-0.2-0.3-0.1-0.6c-0.4-0.2-0.8-0.4-1.1-0.7l0.1-0.1
				c-0.5-0.6-1-0.5-1.4-0.6c-0.1-0.2,0.1-0.2,0.2-0.2c-0.6-1.1-0.6-1.1-1.8-1.6l0.3-0.3c-0.2-0.1-0.2-0.6-0.4-1.1
				c-0.2-0.6-0.3-1.2-0.7-1.7c0.1,0,0.1,0,0.2,0.1c-0.2-0.3-0.3-0.7-0.4-1c-0.1-0.4-0.1-0.8-0.1-1.2c0-0.7-0.1-1.3-0.9-1.5l-0.5-0.9
				c0.1,1.3-0.7-0.1-0.9,0.5c-0.2-0.5,0.3-1.3,0.4-0.7l-0.1,0.1c0.8,0.1,0.1-1.6,0.7-1.6c-0.3-2.4,0.2-4.8,0.4-7.1l-0.6,0.2l0.1-0.8
				c0.2-0.2,0.5-0.2,0.4,0.3c0.4-0.3-0.2-1-0.4-1c0.4-1.1,0.7,0.5,0.7,0.2l0-0.5l-0.1,0.1c-0.2-0.4-0.5-0.5-0.4-1.2
				c0.2-0.4,0.4-0.2,0.5-0.4c0,0,0.1,0,0-0.3l0.2-1l-0.5,0.3c-0.2-0.5,0.1-1-0.5-0.6c0.9-0.6,0.9-3.8,1.2-4.1
				c-0.3-0.7-0.1-1.3,0.1-2.1c-0.1,0.2-0.7,0.2-0.5-0.5c1.1,0.5,0.8-1,1.7-1.2c-0.7,0.2,0.5-1.6-0.5-1.3c0.3-0.4,0.4,0.1,0.8-0.1
				c0-0.3,0.2-0.6,0.3-0.9c0.2-0.3,0.4-0.6,0.6-0.8c0.3-0.2,0.5-0.5,0.8-0.7c0.3-0.2,0.6-0.5,0.8-0.7c-0.1-0.1-0.4-0.1-0.3-0.5
				c0.4,0,0.7,0,1.1,0.1c0.2-0.2-0.3-0.9,0.4-0.8c-0.1-0.1-0.3-0.1-0.2-0.3c1.5-0.5,2.7-1.4,4.2-2c1.5-0.6,3.1-1,4.7-0.6
				c-0.5-0.2-0.2-0.3,0.1-0.4c-0.2,0-0.1-0.4-0.1-0.6c0.5,0.1,0.9,0.2,1.4,0.4c0.2-0.6,1.4-0.2,1.5-0.7l-0.4,0.1
				c0.5-0.7-0.9-1.4-0.9-2.2c-0.3,0.4-0.8,0.2-1.3,0c-0.5-0.2-1.1-0.2-1.6,0.4c-0.3-0.1,0.2-0.3,0-0.5c-0.2,0.4-0.5,0.6-1.2,0.5
				l0.1-0.1c-0.9,0.3-1.5,0.3-2.2,0.5c-0.7,0.1-1.4,0.2-2.4,0.5l0.3,0.3c-0.4,0.1-0.6,0-0.8,0c-0.2,0.8,1.2-0.5,1,0.4
				c-0.4-0.3-1.2,0-1.8,0.4c-0.7,0.3-1.3,0.7-1.8,0.4c-0.6,0.4,0.4,0.3-0.2,0.7l-0.3-0.1l0,0.4c-0.4,0.2-0.8,0.1-0.9,0
				c0.1,0,0.2-0.2,0.3-0.3c-0.3,0.1-0.7,0.4-1,0.6c-0.3,0.3-0.4,0.6-0.6,0.6l0.6-0.4c-0.3,0.4-0.7,0.8-1.1,1.1
				c-0.4,0.4-0.7,0.8-1,1.3c-0.4,0.4-0.6,0.9-0.8,1.4c-0.1,0.2-0.2,0.5-0.3,0.7c-0.1,0.3-0.1,0.5-0.2,0.7l0.2-0.1
				c-0.1,0.7-0.3,1-0.5,1.2c-0.2,0.3-0.3,0.5-0.5,1.3l0-0.1c0.1,0.3,0.1,0.8,0,1.1c-0.2-0.4-0.6,0.6-0.7,0.1
				c0.1,1.5,0.2,0.7,0.7,1.8l-0.4,0.2c0.2,0.4,0.4,0.4,0.3,1.1c-0.2-0.6-0.6,0.4-0.8-0.3c-0.9,1.4,0.4,2.3-0.8,2.9
				c0.8,0.8,0.7-1.2,0.8-0.8c0.3-0.3,0.6,0.7,0.4,1.1c-0.1,0.5-1.2,0.7-1.4,1.9c0-0.1,0-0.1,0-0.3c-0.3,0.4,0.2,0.9-0.2,1.4
				c0.5,0.4-0.1,0.7,0.6,0.9l-0.1-1.1c0.1,0.6,0.9,1.3,0.4,2.3c-0.1-0.1-0.3-0.4-0.4-0.6c-0.2,0.3,0.1,0.6-0.1,0.9
				c-0.7-0.1-0.1-1.4-0.5-2.1c-0.3,0.3,0.4,1.3-0.3,0.9c0.9,0.6-0.2,1.2,0.5,2.1l-0.4-0.1c0.1,0.1,0.2,0.4,0.2,0.7l-0.5-0.5
				c0.4,0.7-0.4,1.3-0.2,2c0-1.4,0.5-0.3,0.8-0.9c0.5,1.7-1.1,1-0.9,2.9c-0.1-0.3,0.2-1,0.4-0.6c-0.1,0.4-0.2,0.8-0.4,1.1
				c0.2,1.3,0.4-0.2,0.7,0.3c-0.5,0.5,0.2,0.6,0.4,1.1l-0.4,0c-0.1,1.5,0.9,0.3,0.7,1.6l-0.6-0.5l0.2,0.7l-0.5-0.1
				c0.5,0.7,0.4,0.9,0.4,1.7c0.3-0.2,0.7,0,0.9,0.6c-0.1,0.5-0.4-0.2-0.2,0.7c-0.3-0.1-0.7-0.3-0.4-0.8c-0.1,0-0.3-0.1-0.4-0.2
				c-0.2,0.5,0.2,1.2,0.3,1.5c0-0.1,0-0.3,0-0.4c0.3,0.4,0.6,0.8,0.9,1.2c-0.1,0.2-0.3,0.1-0.4,0c0.1,0.3,0.4,0.4,0.5,0.7
				c-0.4,0-0.7,0.1-1-0.4l0.8,1.1c-0.1,0.1-0.1,0.8-0.3,0.7c0.1,0.4,0.4,0.8,0.7,1.1c0.4,0.4,0.7,0.8,0.9,1.3c0.1,0,0.2,0.1,0.3,0.2
				c0.5,0.8,0.6,1.8,1.7,2.4c0,0.3,0,0.6,0,0.9c0.7,0.6-0.1-1.1,1.1-0.3c0.9,0.5-0.1,0.6,0.1,1c0.6,0.2,1.7,0.1,2.2,1
				C217.4,80.6,217.2,80.4,217,80.3z M226.8,83.3c-0.2,0.1-0.6,0.3-0.7,0C226.3,82.9,226.4,83.2,226.8,83.3z M241.3,81.4
				c-0.1,0.2-0.3,0.1-0.6,0C240.9,81.4,241.1,81.3,241.3,81.4z M252.6,49.6C252.6,49.6,252.6,49.6,252.6,49.6
				C252.5,50.1,252.6,49.9,252.6,49.6z M252.5,48.8c-0.1-0.1-0.1,0-0.2,0c0.1,0,0.2,0.2,0.2,0.4C252.6,49.1,252.7,49,252.5,48.8z
				 M213.5,54.5l-0.1,0.1C213.3,54.3,213.4,54.4,213.5,54.5z"/>
			<path class="st0" d="M239.8,82.3c-0.1-0.1-0.1-0.1-0.1-0.2C239.7,82.1,239.7,82.2,239.8,82.3z"/>
			<path class="st0" d="M212.2,75.4L212.2,75.4C212.2,75.4,212.1,75.4,212.2,75.4L212.2,75.4z"/>
			<path class="st0" d="M257.8,61.2c-0.1,0.2-0.1,0.3-0.2,0.3C257.7,61.5,257.8,61.4,257.8,61.2z"/>
			<path class="st0" d="M250.5,45.3l0.3,0.4c-0.1-0.2-0.1-0.3-0.1-0.4C250.6,45.3,250.5,45.4,250.5,45.3z"/>
			<path class="st0" d="M250,40.4c-0.1,0-0.1-0.1-0.2-0.1l-0.1,0.2C249.9,40.6,250.2,40.7,250,40.4z"/>
			<path class="st0" d="M251.5,44.2c0.3-0.2,0.1-0.4-0.2-0.7c0,0,0,0,0,0.1C250.9,43.8,251.2,44,251.5,44.2z"/>
			<path class="st0" d="M251.3,43.5c-0.1-0.1-0.1-0.2-0.2-0.3C250.9,43.3,251.1,43.4,251.3,43.5z"/>
			<path class="st0" d="M252,47.9c0-0.2-0.5,0-0.4-0.1C251.2,47.8,252.5,48.7,252,47.9z"/>
			<polygon class="st0" points="252.4,43.4 252.1,43.8 252.5,43.8 			"/>
			<path class="st0" d="M253.3,46.3l-0.1-0.6c-0.1,0-0.1,0-0.2-0.1C253.1,45.9,253.2,46.3,253.3,46.3z"/>
			<path class="st0" d="M253,45.6c-0.1-0.2-0.1-0.3-0.2-0.4C252.8,45.2,252.9,45.4,253,45.6z"/>
			<path class="st0" d="M252.9,44.1l0,0.2c0.1,0.1,0.1,0.3,0.2,0.4L252.9,44.1z"/>
			<path class="st0" d="M254.8,52.5l0.2,0.6c0.2,0,0.2-0.1,0.1-0.4C255.1,52.6,254.9,52.4,254.8,52.5z"/>
			<path class="st0" d="M255.6,50.3c0,0.2-0.1,0.2-0.3,0.4l0.5-0.1L255.6,50.3z"/>
			<path class="st0" d="M256.1,52.2c0.2,0,0.6,0.9,0.4,0.1C256.4,52.2,256.1,51.6,256.1,52.2z"/>
			<polygon class="st0" points="256.3,62.2 256.3,62.1 255.4,62.1 			"/>
			<path class="st0" d="M257,71.6c0.5-0.7-0.4-0.4,0-1c-0.1-0.3-0.4,0.5-0.5,0.3C256.6,71.4,256.3,71.6,257,71.6z"/>
			<path class="st0" d="M256.5,70.9c0-0.1,0-0.2-0.1-0.3C256.5,70.7,256.5,70.8,256.5,70.9z"/>
			<polygon class="st0" points="230.5,36.5 231,36.6 230.6,36.3 			"/>
			<path class="st0" d="M231.3,35.7l0.1,0.6l0.3-0.5C231.6,35.8,231.4,35.9,231.3,35.7z"/>
			<path class="st0" d="M228.2,84.6l0.1-0.1c-0.1-0.1-0.2-0.2-0.5-0.2L228.2,84.6z"/>
			<path class="st0" d="M220.8,82.7c0,0,0.1,0,0.1,0.1l-0.1-0.6L220.8,82.7z"/>
			<path class="st0" d="M214.6,79.8c0.2,0.2,0.5,0.3,0.8,0.6C214.8,80,215,79.3,214.6,79.8z"/>
		</g>
	</g>
	<path class="st1" d="M230.4,48.9c0.1,0.1,0.3,0.1,0.6,0l-0.4-0.2C230.6,48.9,230.5,48.9,230.4,48.9L230.4,48.9z"/>
	<path class="st2" d="M247.1,48.7l0-0.2l-0.2-0.8v0.1l-1.2-0.8l-0.7-0.4c0,0-0.2,0-0.4-0.1c-0.2-0.2-0.4-0.3-0.6-0.3
		c0,0,0.1-0.1,0.1-0.1c0,0-1.2,0-1.2,0c-0.3-0.1-0.5,0-0.7,0l-0.5,0.1c0,0-0.1,0-0.1,0c-0.1,0-0.3,0-0.6,0.1c-0.2,0-0.6-0.1-0.6-0.1
		l-0.4,0l0.1,0.2l-0.6-0.2h0l-0.5-0.1l-0.6,0.1l-1,0.1c0,0-0.4,0-0.4,0l-0.9,0.1l0.3,0l-1.4,0c0,0-0.5,0-0.8,0
		c0-0.5-0.1-1.7-0.1-1.7l-0.1-1.2c0,0-0.3-0.7-0.3-0.7l-0.6-0.1c-0.1-0.1-0.2-0.1-0.3,0c0,0-0.1-0.1-0.1-0.1c-0.2,0-0.3,0.1-0.4,0.2
		c-0.1-0.1-0.3-0.2-0.3-0.2l-0.2,0.6c0,0.2-0.1,0.6,0.1,1c0.1,0.5,0.1,1,0.1,1.5c0,0.3-0.1,0.6-0.1,0.9c0,0-0.7,0-0.7,0l-1,0.1
		l0.2,0l-0.5,0l-0.6,0c0,0,0,0.1-0.1,0.1c-0.2,0-0.6-0.1-0.8,0.2c-0.1-0.2-0.4-0.1-0.4-0.1l-0.5,0.1c0.2,0-1.4,0.1-1.4,0.1l-0.3,0
		l0.2,0l-0.9,0l-0.2,0.1l-0.4,0l-1.4,0.2l-1.7,0.2c0.2,0-1.1,0.2-1.1,0.2l-1.1,0.1c-0.2-0.1-0.4,0-0.4,0.1c-0.1-0.1-0.3-0.1-0.5,0
		c0,0,0-0.1,0-0.1h-0.4c0,0-0.1,0.1-0.1,0.1c-0.2,0-0.3-0.1-0.4-0.1l-0.1,0l-0.5,0.1h-0.3l-0.5-0.1c-0.1-0.2-0.3-0.2-0.5-0.1
		l-0.1,0.1l-0.1,0.1c-0.3,0.8,0.3,1.6,0.5,1.9l0.1,0.1l0.2,0.1l0.3,0.1l0.2,0.1l0.9,0.1l0.5,0.1l2.3,0l0.2-0.1l0,0l0.7,0.5
		c0,0,0-0.2,0-0.3c0,0,0.1,0.1,0.1,0.1l0.4-0.4c0.2,0,0.9,0,0.9,0l0.1,0l0.6-0.1l-0.1,0c0.1,0,0.2,0,0.3-0.1c0,0,0,0,0.1,0.1
		c0.2,0,0.3-0.1,0.4-0.1l0,0l0.4,0c0,0,0.2-0.2,0.3-0.3c0.1,0,0.2,0,0.2,0l0.2,0.2l0.3-0.3l0.1,0c0,0,0.1-0.1,0.1-0.1
		c0.1,0,0.2,0.1,0.3,0.1c0,0,0,0,0,0c0-0.1,0.6-0.2,0.8-0.3c0.1,0,0.7-0.1,0.7-0.1l0.6,0l0.3,0c0,0,0.9-0.1,1-0.2
		c0,0,0.1,0.1,0.1,0.1l0.5-0.2l-0.1,0c0.2,0,0.6,0.1,0.9-0.3c0,0.1,0,0.1-0.1,0.1c0.2,0.1,0.3,0.1,0.4,0.1c0.1,0.1,0.1,0.1,0.1,0.1
		s0.1-0.1,0.2-0.1c0.1,0,0.2,0.1,0.3,0.1c0,0.1,0,0.1,0,0.2c0,0.1,0,0.3,0.1,0.4l-0.2,2.2c-0.1,2.2-0.2,4.6-1.2,6.5
		c0,0-0.5,0.9-0.5,0.9s-0.1,0.2-0.2,0.4c0-1.4-0.2-2.9-0.6-4.1c-0.2-0.5-0.5-1-1.1-1.3c-0.1-0.2-0.3-0.4-0.7-0.4
		c0,0-0.1-0.3-0.7-0.4l-0.1-0.2l-0.4,0.1l0,0l-0.7-0.2l-0.1,0.1c-0.2-0.1-0.5-0.2-0.8-0.1c-0.2,0.1-0.2,0.1-0.2,0.1
		c-0.2-0.1-0.5,0-0.5,0s-0.2,0.1-0.3,0.1c0-0.1-0.1-0.2-0.1-0.2l-0.6,0.2l-0.1,0c0,0-0.2,0.1-0.3,0.2c-0.1,0-0.2,0-0.3,0
		c0-0.1-0.1-0.2-0.1-0.2l-0.4,0.1c-0.2,0.1-0.3,0.3-0.4,0.5c-1,0.5-1.3,1.5-1.5,2.3l0,0.2l0.1,0.2l0.2,0.3c0,0,0.3,0.4,0.4,0.6
		c0.1,0.2,0.2,0.4,0.2,0.4l0.3,0.6l0.2,0.3l0.6,0.8c0.5,0.8,1.4,1.4,2.2,1.9l0.2,0.1c0.3,0.2,0.5,0.3,0.7,0.2
		c0.3,0.1,0.6,0.3,0.6,0.3s0.2,0.1,0.4,0.2h0c0,0.8-0.5,1.7-1.2,2.3c-0.1,0.1-1,0.9-1,0.9l-0.8,0.7c0,0,0.8,0.1,1.1,0.1
		c0,0,0-0.3,0-0.3c0.1,0.2,0.2,0.3,0.3,0.3h0c0,0,0,0,0,0c0,0,0,0.1,0,0.1l0.1,0l0.4-0.1l-0.1,0l0.4-0.1c0.1-0.1,0.3-0.3,0.4-0.5
		c0.3-0.2,1.1-0.7,1.1-0.7l0.5-0.4l0.1-0.2l0.5-0.5c0,0,0.5-0.5,0.6-0.7c0.1,0,0.1-0.1,0.2-0.1c0.1,0,0.2,0.1,0.2,0.1l0.2-0.4
		l0.4-0.6c0.2,0.1,0.4-0.1,0.5-0.3l-0.2,0.1c0,0,1.3-1.2,1.3-1.2c0,0,0.1-0.1,0.1-0.1c0.1,0,0.2,0.1,0.2,0.1l0.5-1.1l0.8-1.9
		c1.1-2.5,1.3-5.4,1.4-8.7c0.1-0.2,0.1-0.3,0.1-0.4c0,0,0,0,0,0c0.2,0,0.3,0,0.3,0l0.2,0.3l0.3-0.3l0.2-0.1l0.1-0.2
		c0.2,0.2,0.4,0.3,0.7,0.3c0,0.1,0.1,0.2,0.1,0.2l0.7-0.2c0.2,0.1,0.7,0,0.7,0c0.3-0.1,0.3-0.1,0.3,0l0.4,0.3c0,0,0.2-0.3,0.2-0.4
		c0.1,0,0.1,0.1,0.3,0.1l0,0l0.5-0.1l0.3,0l0.3,0l0.2,0l0.1,0.1l0.3,0c0.4,0,0.7,0.1,1,0.4l0.2,0.2l0.5-0.1l0.1,0.1l0.2,0.1
		c0.3,0.2,0.5,0.1,0.6,0c0.3,0,1.5-0.1,1.5-0.1s0-0.1,0-0.1c0.1,0,0.7,0.1,0.7,0.1s0-0.2,0-0.3c0.1,0,0.1-0.1,0.2-0.1
		C245.7,49.2,247.1,48.7,247.1,48.7L247.1,48.7z M226.4,56c0.3,0.7,0.5,1.6,0.5,2.4c0,0.3,0,0.6-0.1,1c-0.1,0-0.3-0.2-0.6-0.3
		c0,0-0.9-0.8-0.9-0.8c-0.8-0.7-1.6-1.4-1.6-2.2c0-0.1,0-0.2,0-0.2c0,0,0,0,0,0c0.4,0.1,0.6-0.2,0.6-0.3l0,0c0.1,0,0.2-0.1,0.2-0.1
		s0.3-0.1,0.4-0.1c0.1,0.1,0.3,0.2,0.6,0.1c0,0,0.1-0.1,0.1-0.1c0,0,0,0,0.1,0.1c0,0,0.2,0.1,0.4,0.3
		C226.3,55.7,226.3,55.8,226.4,56L226.4,56z M244,46.2C244,46.3,244.1,46.3,244,46.2C244.1,46.3,244,46.3,244,46.2
		C244,46.3,244,46.2,244,46.2L244,46.2z M241.7,46.3c-0.1,0.1-0.3,0.2-0.3,0.2C241.4,46.4,241.5,46.3,241.7,46.3L241.7,46.3z
		 M231,48.8c0,0,0.1,0.1,0.2,0.2L231,48.8L231,48.8z M238.8,48.9l-0.1-0.1C238.7,48.8,238.7,48.9,238.8,48.9
		C238.8,48.9,238.8,48.9,238.8,48.9L238.8,48.9z M244.7,49.3L244.7,49.3L244.7,49.3L244.7,49.3L244.7,49.3z"/>
	<path class="st1" d="M224.5,65.2c0,0,0.2,0,0.2,0C224.7,65.2,224.6,65.2,224.5,65.2L224.5,65.2L224.5,65.2z"/>
	<path class="st1" d="M230.6,48.7L230.6,48.7C230.6,48.7,230.6,48.7,230.6,48.7L230.6,48.7L230.6,48.7z"/>
	<path class="st2" d="M252.1,63.9c0-0.1,0-0.2,0-0.2l-0.3-0.7c0,0-0.5,0.7-0.5,0.7c0,0-0.6,0.4-0.6,0.4c0,0,0.1,0.1,0.2,0.1
		c-0.2,0.3-0.4,0.5-0.4,0.5l-0.9,1.2c0,0-0.5,0.6-0.5,0.6l-0.4,0.5c-0.1,0.1-1,0.9-1,0.9c-0.5,0.4-0.9,0.8-1.2,1.3
		c-0.1,0-0.3,0.1-0.3,0.1c-0.3,0.1-0.6,0.4-0.8,0.7c-0.2,0.2-1,0.8-1,0.8l-0.5,0.5l0,0.1c-0.1,0.2-0.4,0.4-0.8,0.6l0,0l-0.1,0.2
		l-0.3,0.2l-0.6,0.5c-0.1,0.2-0.4,0.3-0.9,0.4l-0.7,0.2c-0.4,0.1-0.6-0.1-1.1-0.5c0,0-0.4-0.5-0.5-0.6c-0.1-0.4-0.1-0.8-0.1-0.8
		s0-0.1,0-0.1c0.2-0.1,0.6-0.3,0.6-0.3l-0.8-0.4c-0.1,0-0.1-0.1-0.1-0.2l-0.2-1.7l0,0.1c0-0.1,0-0.3,0-0.4c0-0.1,0-0.1,0-0.1
		c0-0.1,0-0.3-0.1-0.3l0.6-0.3c0,0-0.4-0.2-0.6-0.3c0.1-0.2,0.1-0.6,0.1-0.6c0-0.2-0.1-0.4-0.1-0.6c0-0.4,0.1-1,0.2-1.6
		c0.1,0,0.1-0.1,0.1-0.2c0-0.1,0-0.2-0.1-0.3l0.2-0.1l0.1-0.3l0.1-1.4l0.1-0.6l0-0.2l0.1,0.2c0-0.1,0.1-0.2,0.1-0.3
		c0,0,0-0.1-0.1-0.1c0.1-0.1,0.2-0.2,0.2-0.3c0-0.1,0-0.1,0-0.2l-0.2,0.3l0.2-0.6l0.3-0.2l-0.2-0.5l-0.1-0.2l0.1-0.4
		c0.1-0.1,0.1-0.6,0.1-0.6c0-0.5,0-0.9,0.3-1.3c0.4-0.4,0.2-0.7,0.2-0.8c-0.1-0.1-0.4-0.4-0.4-0.4c-0.2-0.4-0.6-1-1.6-0.9l0.3,0.1
		l-1.1-0.2l-0.1,0.1l-0.7,0.2l-0.2,0.1c-0.2,0.2-0.2,0.3-0.2,0.5c-0.1,0-0.3,0-0.4,0.2l-0.1,0.2c0,0,0,0.1,0,0.1c-0.1,0-0.1,0-0.1,0
		l0.1,0.9c0,0,0,0.1,0,0.1c0,0.2,0.1,0.4,0.3,0.7c0,0,0,0,0,0.1c0,0.1,0,0.1,0,0.2c-0.2,0.1-0.4,0.2-0.4,0.2s0.4,0.4,0.5,0.5
		c0,0.2-0.1,0.5-0.1,0.5l-0.1,0.3l-0.1,0.1l0.1,0.3l-0.3,2.9l0.1,0.4l0,0.3l0,0.9c0,0,0-0.1,0-0.2c0,0,0,0.1,0,0.1
		c-0.2,0.2-0.2,0.4-0.2,0.6c0,0.2,0.1,0.3,0.1,0.4c0,0,0,0,0,0.1c0,0.2-0.2,0.8-0.2,0.8l-0.1,0.5l0.1,0.6l0,0.5l-0.1,2.2l0.2,0.1
		c-0.1,0.1-0.1,0.2-0.1,0.2c0,0.1,0.1,0.1,0.1,0.1c0,0.3,0.2,1.5,0.2,1.5l0.2,1.3l0.1,0.2l0.1,0.2c0,0,0.2,0.3,0.3,0.4
		c0,0.2,0,0.3,0,0.3l0,0.1l0.3,0.4l0.3,0.5l0.5,0.8c1.1,1,3.1,0.6,3.7,0.5c0.2,0.1,0.6,0,0.9-0.2c0.1,0,0.1-0.1,0.1-0.2
		c0.1,0,0.1,0,0.1,0c0.4-0.1,0.8-0.2,1-0.7l1.7-1.3c0.2-0.1,0.3-0.3,0.4-0.4l0.1-0.1l0.1-0.3c0,0.1-0.1,0.1-0.1,0.1
		c0.5-0.3,0.7-0.7,0.8-1l0.1-0.2c0,0,0,0,0,0c0,0,0.8-0.6,0.8-0.6l0.4-0.4c0,0,0-0.1,0-0.2c0.1-0.2,0.7-1,0.7-1l0.7-0.9
		c0.1-0.1,0.5-1.3,0.5-1.3c0,0.2,0,0.3-0.1,0.3c0.2-0.1,0.5-0.2,0.6-0.5l0,0l0-0.2c0.2,0,0.6-0.8,0.6-0.8l-0.2,0.4l0.4-0.5l0.2-0.2
		c0,0,0-0.2,0-0.3c0.2-0.2,0.5-0.5,0.5-0.8c0,0,0,0,0-0.1c0.1-0.1,0.2-0.2,0.2-0.3v0l-0.3,0.2l0.5-0.6l0.2-0.3l0-0.2L252.1,63.9
		L252.1,63.9C252.1,64,252.1,64,252.1,63.9L252.1,63.9z M250.9,66.6C250.9,66.5,250.9,66.5,250.9,66.6
		C250.9,66.5,250.9,66.5,250.9,66.6C250.9,66.5,250.9,66.6,250.9,66.6L250.9,66.6z M252,64.2L252,64.2C252,64.1,252,64.1,252,64.2
		C252,64.1,252,64.1,252,64.2L252,64.2z"/>
</g>
<path class="st0" d="M293.1,170.6h-1l-0.3,0.5c-0.1,0.5-0.1,1,0,1.3c-0.4,0.4-0.9,0.6-1.4,0.6c-0.4,0-1.1,0-1.9,0
	c-1.4,0-2.4,0.4-3.2,1.3c-1,0.3-2,0.6-3,0.8c-1.4,0.4-2.1,1.1-2.1,1.9c0,0.2,0.1,0.5,0.2,0.8l-2.9,0.5l1.9-0.5l-0.3-1l-0.5-0.5h-0.3
	l-0.3,0.2c-0.2,0.1-0.6,0.2-1.3,0.2c-0.4,0.4-1.1,1-1.9,1.6h1.4l-8.1,1.6l1.3,0.5c-0.7,0-2.2,0.3-4.4,0.8l-0.3,0.3
	c-0.2,0.3-0.5,0.7-0.8,1.1l-0.6,0.3h-1.1c-0.4,0.2-1,0.5-1.6,0.8l-0.3-0.2l0.2-0.8l-0.5-0.2l0.6,0.8c0.7-0.1,1.9-0.3,3.3-0.6
	c-0.2-0.4-0.4-0.7-0.6-1c-0.2,0-0.5,0-1,0l-0.3-0.3l0.2-0.2c0.2,0,0.4-0.1,0.5-0.3h-0.3c-0.6,0-1.5,0.1-2.7,0.2
	c-0.2,0.3-0.4,0.6-0.5,1l-1.6-0.2c-1.7,0.7-2.5,2.7-2.5,5.7c0,0.6,0,1.3,0.2,2.1c1.7-0.8,5.9-1.6,12.5-2.4c1.1,0.4,2.6,1,4.8,1.7
	l0.3,2.2l-1.1,1.1l1,1.4c-3-0.1-7.4,0.9-13.3,3l-0.3,0.3c0.2,0.2,0.5,0.4,0.8,0.6c-4.7,0.5-7,1.7-7,3.7c0,0.6,0.2,1.3,0.5,1.9
	c5.8-1.1,10.3-2.1,13.3-3c3.6-1.3,9.1-2.7,16.4-4.3c1,0.5,2.6,1.7,4.9,3.5l-1.1,1.7c0.4,0.8,1,1.3,1.6,1.4
	c-2.7,0.8-8.5,2.1-17.5,3.7c-7.4,1.3-13.1,3-17,5.1c-0.5,2.7-0.8,8.1-0.8,16.4c0,15.7,1.1,28.7,3.3,39.1c-0.2,0.3-0.3,0.7-0.3,1.1
	c0,0.7,0.4,2.8,1.3,6.2c-1.1,0.8-2.2,2.5-3.5,4.9h-1.1c-1-1.2-1.9-1.9-2.7-2.2h-0.6c-2.9-1.7-4.3-3.7-4.3-5.9c0-0.8,0.2-2.2,0.5-4
	c0.3-1.8,0.5-3.2,0.5-4.2c0-1,0.1-1.8,0.3-2.3c0-2.4-0.2-6-0.6-10.8c-0.4-4.8-0.6-8.4-0.6-10.8c0-2.8,0.2-6.9,0.6-12.5
	c0.4-5.6,0.6-9.8,0.6-12.5c-0.6,0.1-1.2,0.2-1.7,0.2c-2.7,0-5.2,0.4-7.6,1.1c-0.6,0.3-1.6,0.7-3,1.1l-1.6,1.7l-0.8,0.2l-0.6-0.3
	l-0.2-0.2l-0.2,0.3l0.8,1.7c-0.3-0.1-0.6-0.2-1-0.2c-0.4,0-0.8,0.2-1.1,0.6c0.5,0.7,0.8,1.8,0.8,3.2c0,0.6,0.2,1.2,0.5,1.6l-1.9,1
	l0.5,1.3c-2.9,1.4-6.5,2.7-10.8,4c-2.3,0.8-5.8,2-10.5,3.5c-3.6,1-9.6,1.9-17.9,2.9c-3.8-0.1-9.5,0.3-17.1,1.1
	c-5.6-0.7-8.4-4.2-8.4-10.3c0-0.4,0.1-1,0.2-1.6c0.2-0.6,0.2-1.1,0.2-1.4c0.4-6.6,0.8-13.1,1.3-19.7c0.6-7.5,1.7-14,3.3-19.4
	l0.5-0.5v-0.8l-0.2-0.5c-0.1,0.1-0.2,0.3-0.3,0.6c0.7-2.1,1.5-4.3,2.2-6.7c0.7-0.6,1.8-1.7,3.2-3.3l6,1v0.6c0.3,1,0.7,1.6,1.1,2.1
	c-0.8,0.4-1.5,1.6-2.1,3.5v0.8c0.1,0.4,0.3,0.7,0.6,0.8c2.6-1.2,6.7-3.1,12.2-5.7c-0.1-0.4-0.7-1.4-1.7-2.9c-1-1.5-1.5-2.4-1.5-2.6
	c0-0.4,0.1-1.1,0.4-2c0.3-0.9,0.4-1.6,0.4-2c3.1-3.7,6.2-9.4,9.5-17c0.4-0.5,1-1.6,1.6-3.2l-0.2-0.6l-1.4,0.3
	c-2.1-0.7-5.1-2.2-9.1-4.3c-4.4,1.6-9.5,4.4-15.1,8.6c-8.3,5.9-13,9.3-14.1,10l-1.7,2.2c-1.1,0-1.9-0.4-2.5-1.1l-2.1,1
	c-1.1-0.6-2.1-1.3-3-1.9c-1.4-0.8-2-1.7-1.7-2.7l-1.3,0.5l-1.1-0.8l-0.6-0.2l-0.5,0.2c-0.3-0.5-0.7-1.2-1.3-2.1
	c-0.2,0.1-0.4,0.2-0.5,0.3l-0.3,0.2c-0.8-1.7-1.9-2.8-3.2-3.3l-1.1,1c-0.4-0.5-0.6-1.2-0.6-1.9c0-0.6,0.2-1.3,0.6-2.1
	c-0.1-1.2-0.5-2.4-1.3-3.8c0.3-0.5,0.5-1.3,0.5-2.2c0-4.9-0.3-7.8-1-8.9c0.8-0.3,1.6-1.2,2.3-2.6c0.7-1.4,1.5-2.3,2.5-2.6l1.1,0.3
	c0.2-1.1,1.9-2.7,5-5c3.1-2.3,5.1-3.9,5.8-5c0.2-0.4,0.5-0.6,0.8-0.6h1.3v-0.6c0.2-0.2,0.4-0.5,0.5-0.8h-0.2l2.1-1.6l-1.1,1.6l1,0.5
	c0.1-0.3,0.3-0.5,0.6-0.6h1.7l0.2-1.4c0.8-0.4,2.7-1.5,5.6-3.2c2.4-0.5,5.8-1.5,10-2.9c0.8-0.7,2.2-1.7,4.1-3l0.3-0.5
	c-0.6,0-0.4,0,0.8,0h0.6l0.3,0.3l0.5,0.2h0.8l0.6-0.3l-0.6-0.8c0.8,0.1,2.5,0.8,4.9,2.1c1.9,1,3.5,1.3,4.9,1.1
	c0.3,0.8,1.2,1.9,2.7,3c0.1,0.4,2,3,5.7,7.6c0,0.5,0.4,2.1,1.3,4.8c-0.4,1-1.1,2.6-1.9,4.9c-1.1,1.7-2.4,3.6-4,5.7
	c-0.1,0.1-0.2,0.3-0.2,0.6c0,0.5,0,0.9,0,1.1c5.4-0.6,8.2-1,8.4-1c3.5,0,7,2.2,10.6,6.5l-0.6,3.7c0.5,0.3,1.3,2,2.2,4.9
	c-2.2,3.8-5.6,9.5-10,17c-0.1,0.1-0.2,0.2-0.2,0.3l0.3,0.3l0.5,0.2l-1-0.2l-2.1,1.9c0.4,0.4,1.7,0.6,4,0.6c0.6,0,1.6,0.5,2.9,1.5
	c1.3,1,2.6,1.3,3.9,1c0.2,1.4,1.3,2.4,3.2,3c-0.1-0.4-0.4-1.1-0.8-2.1c-0.4-1-0.6-1.8-0.6-2.5c0.3,0,0.8-0.3,1.6-0.8
	c0.3,0,0.9,0,1.7,0c1.2-1.2,3.3-2.2,6.4-3c2.3-0.6,4.7-1.2,7.1-1.7c-3.3-0.8-6.1-3.3-8.4-7.3c-2.1-3.7-3.2-7.4-3.2-11.1
	c0-3.5,0-5.1,0-4.8c0.2-1.8,1.1-2.9,2.5-3.2l1.4,0.5c0.2-1.7,0.3-2.9,0.2-3.7c0.4-0.2,1.1-0.7,2.1-1.4c0.4,0,0.8,0.1,1.1,0.3
	c0.1-0.2,0.3-0.3,0.5-0.3c0.7,0,4.8,1.9,12.2,5.6c0.1,0.2,0.5,1.1,1.3,2.5c0.5,1.1,0.8,1.9,0.8,2.5c0,0.3-0.1,0.6-0.2,0.8
	c0.6,0.6,1.1,1.8,1.3,3.5c0.1,1.3,0.3,2.5,0.6,3.6c0.3,1.1,0.7,2.7,1.4,4.8c0.8-2.2,2.8-6,5.9-11.3c3.1-5.3,5.3-8.8,6.7-10.5
	c6.5-7.5,11.6-11.3,15.6-11.3c2.1,1.1,4.2,2.2,6.3,3.4c2.1,1.2,3.4,3.1,4.1,5.6c-0.2,1.6-2.9,5.2-7.9,10.9
	c-5.1,5.7-7.8,9.9-8.1,12.8c2.1-0.7,5-1.1,8.7-1.1c0.1,0,0.4,0.1,0.8,0.2c1.1,0.2,2.6,0.6,4.8,1.3c0.6,0.6,1.3,1.6,2.1,2.9
	c0.5,0.5,1.4,1.3,2.5,2.4l-0.6,0.8C291.3,167.9,292.1,169.1,293.1,170.6z M169.9,246.6l-1.1,1.6l-2.2,0.6c0.4,1.2,0.9,2.9,1.4,5.2
	c-1.9,2.1-4,4.8-6.4,8.1c-0.5-0.3-1.6-0.5-3.3-0.6c-1.6-0.1-2.8-0.4-3.4-1l-1.3,0.2c-1.9-1.1-3-1.7-3.3-1.9
	c-0.6-0.7-0.8-1.9-0.6-3.3c0-0.6,0.3-1.4,0.8-2.4l1,0.5c2.9-2.9,5.2-4.4,7-4.6c0.4-1.9,2.1-3.2,4.9-4l0.6,1l1.3-1
	c0.3,0.1,0.7,0.2,1.3,0.2l0.5-0.3h0.6C168.1,245.3,168.8,245.9,169.9,246.6z M164.7,119.6h-1.4l-1.7,2.1L164.7,119.6z M217.2,223.3
	c-3.3-10.2-4.9-18.9-4.9-26.4c0-1.1,0-1.9,0.2-2.5c-0.1-1.3-0.4-2.9-1-4.8c-3.2,0.2-7,1.2-11.6,3c-3.7,1.7-7.4,3.3-11.1,4.9
	c-1.9,0.6-4.3,1.7-7.3,3.2c-0.6-0.4-1.3-0.6-2.1-0.6c-0.7,0-1.2,0-1.4-0.2c0-1.1-0.9-2.4-2.7-4c-1.6,3.4-2.5,7.6-2.9,12.7
	c-0.2,4.3-0.4,8.7-0.6,13c-0.2,2,0.1,4.9,1,8.6h1.6C186.8,230.4,201.1,228.1,217.2,223.3z M189.6,252.7c0,0.2-0.2,1.3-0.6,3.2
	l-1.9-0.2c-0.8,0.5-1.4,1.2-1.7,2.1l0.3,0.6c-1.6,0-2.5,0-2.9,0l-0.5-0.3c-0.8,0.2-1.4,0.3-1.7,0.3c-1.6,0-3.2-0.5-4.9-1.6
	c-1.7-1.1-2.9-1.6-3.7-1.7l0.2-0.6l0.3-0.2c0.4-0.1,1.6-1.4,3.5-3.8c0.6,0.1,1.5,0.1,2.5-0.2l-0.2-2.4l4.6-2.9
	c0.2,0.1,0.5,0.2,0.8,0.2c0.1,0,0.5-0.1,1.3-0.3l0.5,0.3l0.8,0.2l0.8,0.6c0.2,0.6,0.5,1.3,0.8,1.9c0.3,0.6,0.8,1,1.6,1.1
	c0,0.4,0,1,0,1.7C189.5,251.6,189.6,252.3,189.6,252.7z M209,204.7c-0.7,0.4-3,1.3-6.7,2.7c-2.9,1-4.9,2.2-6,3.7
	c-0.2,0.6-0.3,1.3-0.3,1.9c0,0.8,0.3,2,1,3.4c0.7,1.4,1,2.6,1,3.4c0,0.3-0.1,0.6-0.2,1c-1.4,0-2.5,1.1-3.3,3.2c-0.4,0-1-0.1-1.7-0.2
	c-0.7-0.2-1.5-0.2-2.2-0.2c-0.7,0-1.3-0.1-1.7-0.2c-0.7-1.1-1.1-4-1.1-8.9c-1.5,0.2-2.5,0.3-3,0.3c-0.6,0-1.5,0-2.7-0.2
	c-1.2,0-2,0-2.5,0c1.2-1.3,2.3-2.4,3.5-3.5c1.2-1.1,2.7-1.8,4.8-2.2l1.3-6.2c0.4-0.2,1.1-0.6,1.9-1.3c0.3-0.6,1.3-1.6,2.9-3l3.7,0.3
	c-0.1,0.5-0.3,1.3-0.6,2.3c-0.3,1-0.5,1.8-0.5,2.5c0,0.5,0.2,1.1,0.6,1.6c0.5-0.2,1.7-0.9,3.7-2.1c1.5-0.8,2.8-1.3,4-1.3
	c1,0,1.9,0.3,2.9,1h0.6C208.2,203.5,208.6,204.2,209,204.7z M228.5,242.4v2.7c0,0.7-0.3,1.9-0.8,3.5h-1l-3.5,2.5l-1.1-1.4h-0.6
	c-0.4,0.3-1,0.6-1.7,1c-1-0.6-1.8-0.8-2.5-0.5c-0.6-0.5-1.6-1.4-2.9-2.5l-0.3-1h-1c-0.1,1-0.2,2-0.3,3c-0.1,1.1-0.5,1.9-1.3,2.5
	l-2.5-0.6c-0.2,0.2-0.4,0.5-0.6,1c0,0.3,0.2,0.6,0.5,1c-0.3-0.1-0.6-0.2-1-0.3c-1,0.2-2.1,0.4-3.5,0.5l-0.5,0.3l-0.2,0.8
	c-0.5-0.6-1-1-1.4-1.1c-0.7,0-2.1-0.5-4.1-1.6c-2-1.1-3-1.6-3.3-1.6c0.3-0.6,0.8-1.5,1.6-2.5c0.8-0.7,1.6-1.4,2.2-2
	c0.6-0.6,1-1.7,1.1-3.3l3.3-2.5c0.3-0.1,1.1-0.2,2.2-0.2c0.7,0,1.4-0.2,1.9-0.5l1.4,0.8l3.2,3.8c0.7-0.3,1.8-0.6,3.3-1
	c0.4-1.2,0.8-2.3,1.1-3.3c0.3-0.5,1.3-1.3,3-2.2c0.5-0.2,1.4-0.5,2.5-1c1,0.4,2,0.6,3.2,0.5C225.8,238.3,226.9,240,228.5,242.4z
	 M198.3,222.3c-0.1,0.4-0.3,0.7-0.6,1l0.2-1H198.3z M207.9,171.4v-1c-0.3-0.1-0.6-0.2-1-0.2c-0.3,0.3-0.8,0.7-1.4,1.3
	c0.1,0-0.6,0.3-2.1,0.8h-0.3l-1,1.4C203.8,173.7,205.7,173,207.9,171.4z M212.2,165.2l-2.1,1.7h0.3
	C210.7,166.5,211.3,165.9,212.2,165.2z M213.6,161.8l-0.5,0.3c-0.2,0.2-0.4,0.5-0.5,0.8l0.5,0.6
	C213.2,163.3,213.4,162.7,213.6,161.8z M250,186.9l-1.3-1.1c-2.3,1-3.7,1.7-4.1,2.4c-1,0.1-2.4,0.6-4.4,1.4h-0.5V189l0.2-0.2h0.5
	l0.5-0.3c-0.2-0.2-0.4-0.4-0.6-0.5l-1.3,0.2c-1,0.4-1.9,0.8-2.9,1.1c-0.3,0.2-1,1-1.9,2.4l-0.6-0.2c-0.4-0.1-0.7-0.2-1-0.3
	c-0.2-0.1-1.2-0.7-2.9-1.9c-0.6-0.4-1.6-1.1-3-1.9c-0.2-0.7-1.2-1.7-2.9-2.9c-0.1,4.9,0.4,12.2,1.4,21.9c0.5,1.5,1.3,3.7,2.4,6.7
	c0.3,1,0.6,1.9,1,2.9c0.3,1,0.8,1.6,1.6,2.1v-0.3c-0.2-0.3-0.4-0.6-0.6-0.8v-0.2l1.1-1.4l-1.7-1.7c0.1-1.1,0.5-1.8,1.2-2.1
	c0.7-0.4,1.1-0.6,1.2-0.7c1.7-1.9,4.7-3.2,8.9-4c4.2-0.7,6.8-1.6,7.6-2.7c0-0.5-0.3-1.1-1-1.6c-0.7-0.5-1.3-0.8-1.8-0.8
	c-1.4,0-2.3,0.7-2.9,2.2c-0.6,0-1.4-0.2-2.4-0.6c-1-0.4-1.6-0.6-2.1-0.7c-0.2-1-0.3-1.9-0.3-2.9c0-1,0.1-1.8,0.2-2.5
	c1.2-1.4,2.9-2.6,5.2-3.8c2.3-1.2,4.3-1.7,6-1.7c0.4-0.7,0.6-2.1,0.6-4C249.4,187.4,249.6,187.1,250,186.9z"/>
<g>
	<path class="st3" d="M54.6,75.8c2.3-3,4.9-4.9,7.2-8.4c0.4-0.4,1.9-0.4,1.5-1.1c4.2-2.3,5.7-6.1,8.7-9.5c0.8-1.1,1.9-0.4,2.7,0
		c1.9,2.3,3.8,4.2,3.4,6.8c-0.4,1.9-1.9,3-3,4.2c1.5,0.4,3.4,0.8,4.9,0.4c3-0.4,6.1,3.4,9.1,0.8c2.7,1.1,3-2.7,4.6-3.4
		c0-1.1,1.1-3-0.4-4.2c-0.4-2.7-3.8-1.5-4.9-4.2c-3.4-1.9-8-0.4-11-3c-1.1-1.1,0.4-2.3,1.1-2.7c1.5-2.7,5.3-3.4,6.5-6.5
		c3-0.4,3.4-3.4,6.5-4.2c0-3.4,4.9-2.3,4.6-5.7c1.5-1.1,0.8-3.4,0.8-4.9c-4.9-6.8-14.1-2.3-21.3-4.6c-1.1-0.8-2.3-2.3-4.2-1.5
		c1.5,3.4,3.4,6.1,6.1,8.4c-0.8,1.5,1.5,1.5,0.8,3c-3,5.3-7.6,9.9-11.4,14.4c0,0.8-0.4,1.5-1.1,1.5c-0.8,3.8-4.6,4.9-5.7,8.4
		c-3,0.8-6.5,3.8-6.8,6.5c-1.1-0.4-1.9,0.8-3,1.5c-1.1,3.8-6.8,4.2-7.2,8.7c-3.8,0.8-3.4,4.9-6.8,6.1c-0.4,1.5-3,1.9-2.7,3.8
		c-0.8,0.4-1.1,0.8-1.9,0.8l0.4,1.1c-0.4,0-0.8,0-1.5,0c-2.3,3-5.7,5.7-8.7,8.4c-3.8,3.8-7.2,7.2-11.8,9.9c-0.8,2.7-3.4,3.8-4.9,5.3
		c3.8,0.4,6.1-2.3,9.5-3c1.5-1.5,4.6-2.7,5.3-4.6c0-0.4,0.8-0.8,1.1-0.4c1.9-0.4,2.3-2.3,3.4-3c4.2-2.7,8-4.9,11.8-8.4
		c2.7,0,1.9-3.8,4.6-3.8c4.2-3.4,8-6.1,10.6-10.3C53.1,78.5,52.4,75.5,54.6,75.8z"/>
	<path class="st3" d="M157.2,58c-1.1-1.1-2.7-2.7-4.2-3.4c-1.1-2.3-3.4-1.1-4.6-3c-4.9-1.5-10.3-2.7-15.2-3.4
		c-1.9-0.8-3.8-0.8-5.3-1.9c-11,0.8-22-1.5-32.3,0c1.1,2.7,4.6,2.3,6.5,4.2c0.8,0.4,1.9-0.4,1.9,0.8c2.3,0.4,4.6,0,5.7,2.3
		c1.1,0.4,2.7,0.8,3.4,0.8c1.1,1.5,3,1.1,4.6,1.9c2.7,0,4.9,3,8,1.9c1.5,0.8,3,2.3,4.9,1.9c2.3,3,6.1,0.8,8.4,3
		c3.4,1.1,5.3,2.3,9.5,1.9c1.9,2.3,5.3,1.5,8,1.1C158.8,63.7,158,60.3,157.2,58z"/>
	<path class="st3" d="M142,152.2c0.4-2.3-2.3-2.3-2.3-4.2c-1.9-0.8-4.6-2.7-6.8-3.4c-1.1-1.1-2.7,0.4-3.4-1.1
		c-2.3-0.4-4.6,0.4-6.1-1.1c-1.5-0.4-3-0.4-4.2-0.8v1.9c-0.4,0.8-0.4,1.1-1.5,1.1c-1.5-1.1-0.4-2.7-0.4-3.8
		c-4.6-0.8-9.5-2.7-14.1-2.7c-0.8-1.1-2.3-0.4-3-1.5c-0.8,0-2.7-0.4-3.4,0.4c1.1,1.9-1.1,3.8-2.3,4.9c-3,2.7-4.9,6.1-8.7,8.4
		c-1.5,3.8-6.5,4.6-8.7,8c-1.9-0.4-2.7,1.5-4.2,0.8c-0.8-0.4-1.5-1.1-1.9-1.9c0.8-2.7,0.8-5.3,0-7.6c-0.4-1.9,0.8-4.2,0.4-6.1
		c0-2.7,0.8-5.3,1.5-8c-0.4-3.8,0.4-7.6,0.4-11.4c1.5-1.1,3-0.8,4.2-0.4c3.4,1.1,7.6,1.5,11,1.1c2.7,0.8,3.4-3,6.1-2.3
		c3.4,0.4,4.6-4.6,8.4-3.4c1.5,0,3.8,0,3.8-2.3c0.4-1.5-1.5,0.4-1.5-1.5c-1.5-0.8-3-1.5-4.6-1.9c-0.4-6.1,6.1-9.5,6.8-15.6
		c0.8-0.4,0.4-2.3,1.9-2.3c0.4-1.9,0.8-3.4,1.9-4.6c0-0.8,0.4-1.5,1.1-1.5c1.5-0.8,1.9-1.9,1.5-3.4c1.5-1.1,0.8-2.3,1.1-4.2
		c-1.5-0.8-0.8-3-2.7-3.8c-3.8-2.7-8.4-4.6-13.7-5.3c-3.4-0.4-5.3,3.4-8.7,4.2c-1.5,1.1-4.2,1.1-5.7,2.7c-4.9,3.4-9.5,2.3-15.2,1.5
		c-1.9-2.7-5.3,0-6.5-2.7c0,1.5,0,3.4,0.8,4.2H63c0.8,1.5-0.8,3.8,1.1,4.6c-2.7,4.2-8.4,1.5-11.4,4.9c3,2.7,7.2,1.1,10.6,3.4
		c0.8,1.1-0.8,2.7,0.4,3.8c-1.9,2.3,1.5,4.9-0.8,6.5c1.5,3.8-0.8,8,0,11.4c0,7.2-0.8,13.7-0.4,20.9c-1.9,1.1,1.1,2.7-0.8,4.2
		c0.8,0.8-1.1,0.8-0.8,1.9c2.3,3-1.1,5.7,0.4,9.1c-0.4,4.2-1.5,8.4-2.3,12.5c1.1,1.9,3.4,2.7,4.6,4.9c0.4,0.8,1.9-0.4,2.3,1.1
		c1.9-0.4,3,2.3,4.6,2.7c1.1,2.7,4.2,1.9,6.1,3.4c0.8,0,1.5,1.1,2.3,1.9c4.2,1.5,4.6-3.4,8-3.4c1.5-1.9-0.4-3.8,0-5.7
		c1.9-0.4,0.4-3,1.5-4.2c-2.3-1.5,0-4.2,0-5.7c0.4-1.5,1.9-3.8,1.1-5.3l1.1-1.1c2.3-4.9,4.9-9.1,7.2-14.4c1.1,0.4,1.5-0.8,2.7-1.1
		c0.8,1.5,3,1.5,4.9,2.7c0.8,0.8,3,0,2.7,1.9c3,0,3.8,3,6.5,3.8c1.5,2.3,5.7,1.9,6.1,4.9c0.8,0,0.4,1.5,1.5,0.8
		c0,1.5,1.5,1.5,2.7,2.3c1.5-1.1,3.4-0.4,4.9-0.4c1.5,0.4,3,0.8,4.6,1.5c0.8-1.5,2.3,0,3.4-0.8c1.5,1.1,1.5,0,3,0
		c1.1-0.4,0.8-1.5,1.1-2.3c0,0.8,0.8,0.4,1.1,0.4C143.6,152.6,142.4,153,142,152.2z M73.6,110.8c0.4-1.9,0-3.4,0.8-4.9
		c2.7-2.7,6.5,0.4,8.7-1.5c1.1,1.1,2.3,0,3.8,0.4c0.8-1.1,2.3-0.8,3-2.3c0-1.5-1.5-2.3-2.7-2.7c-4.6-0.4-8.7,1.1-12.5,0.4
		c1.1-3-0.4-6.8,1.5-9.5c1.1-2.3,4.9-0.8,4.6-3.4c3.4,1.1,6.8-3,10.6-1.9c3-1.5,4.9,1.1,7.6,1.9c0,2.7,0,4.6-1.1,7.2
		c0,4.2-3,6.8-2.7,10.6c-1.5,2.3-1.5,5.3-2.7,7.6c-1.1,1.1-0.8,2.3-1.9,3.4c-2.3,1.5-5.3,1.5-8,3.4l-8.4,0.8
		C71.4,117.6,75.2,114.2,73.6,110.8z"/>
	<path class="st3" d="M115.8,116.5c-6.1,3.4-11,8.4-17.1,11c-2.3,0.4-3.8,2.7-6.1,2.7c-0.4,0.8-1.5,0.8-1.1,1.5
		c4.6-1.1,8.4-2.3,12.9-4.2c2.7,0.8,3.8-2.3,6.5-1.5c3-1.1,6.8-2.7,10.3-4.2c2.3,0.8,4.2-2.3,6.1-0.4c3,0,4.9-3,8.4-2.7l3-3.4
		c-1.9-2.7-2.3-6.1-5.3-7.6c0-0.8-0.8-1.1-1.5-1.9c-3.4-0.4-8-2.7-10.6,0c1.1,0.8,1.5,1.9,1.9,3
		C123.8,113.5,118.1,113.5,115.8,116.5z"/>
</g>
</svg>
